<?xml version="1.0" encoding="UTF-8" standalone="no"?>
<svg
   width="5120"
   height="2160"
   viewBox="0 0 5120 2160"
   fill="none"
   version="1.1"
   id="svg37"
   sodipodi:docname="shell.svg"
   inkscape:version="1.4.4 (dcaf3e7d9e, 2026-05-05)"
   xmlns:inkscape="http://www.inkscape.org/namespaces/inkscape"
   xmlns:sodipodi="http://sodipodi.sourceforge.net/DTD/sodipodi-0.dtd"
   xmlns="http://www.w3.org/2000/svg"
   xmlns:svg="http://www.w3.org/2000/svg">
  <sodipodi:namedview
     id="namedview37"
     pagecolor="#ffffff"
     bordercolor="#000000"
     borderopacity="0.25"
     inkscape:showpageshadow="2"
     inkscape:pageopacity="0.0"
     inkscape:pagecheckerboard="0"
     inkscape:deskcolor="#d1d1d1"
     inkscape:zoom="0.22962963"
     inkscape:cx="1247.6613"
     inkscape:cy="1019.0323"
     inkscape:window-width="2560"
     inkscape:window-height="1080"
     inkscape:window-x="0"
     inkscape:window-y="0"
     inkscape:window-maximized="1"
     inkscape:current-layer="Logo" />
  <g
     id="Background"
     inkscape:label="Background">
    <path
       d="M 0,1078 V 2156 H 5120 V 0 H 0 Z"
       fill="#031719"
       id="Base"
       style="display:inline" />
    <path
       d="m 3047.5,95.69 c -2.75,0.18 -12.2,1 -21,1.82 -8.8,0.83 -20.5,1.97 -26,2.55 -5.5,0.57 -22.15,3.09 -37,5.58 -17.06,2.87 -36.94,7.06 -54,11.39 -14.85,3.76 -35.32,9.3 -45.5,12.32 -10.18,3.02 -28.63,9.09 -41,13.49 -12.38,4.4 -28.8,10.48 -36.5,13.5 -7.7,3.02 -21.88,8.86 -31.5,12.97 -9.63,4.11 -23.35,10.18 -30.5,13.49 -7.15,3.3 -25.82,12.32 -41.5,20.05 -15.68,7.72 -33.45,16.68 -39.5,19.91 -6.05,3.22 -17.53,9.4 -25.5,13.72 -7.97,4.32 -25.3,13.93 -38.5,21.35 -13.2,7.42 -32.78,18.66 -43.5,24.98 -10.72,6.31 -30.07,17.86 -43,25.66 -12.93,7.8 -32.5,19.73 -43.5,26.51 -11,6.78 -29.45,18.02 -41,24.99 -11.55,6.96 -27.53,16.2 -35.5,20.53 -7.97,4.32 -22.38,11.64 -32,16.26 -9.63,4.62 -23.13,10.8 -30,13.74 -6.88,2.94 -20.15,8.33 -29.5,11.99 -9.35,3.66 -26.9,10.02 -39,14.14 -12.1,4.11 -30.32,9.88 -40.5,12.81 -10.18,2.92 -26.6,7.39 -36.5,9.91 -9.9,2.53 -31.05,7.28 -47,10.56 -15.95,3.28 -37.78,7.36 -48.5,9.07 -10.72,1.71 -27.38,4.19 -37,5.51 -9.63,1.33 -28.53,3.55 -42,4.94 -13.47,1.39 -33.95,3.19 -45.5,4 -11.55,0.81 -31.58,2.01 -44.5,2.65 -12.92,0.65 -47.35,1.18 -76.5,1.18 -29.15,-0.01 -65.15,-0.54 -80,-1.18 -14.85,-0.65 -36.9,-1.81 -49,-2.59 -12.1,-0.78 -28.53,-1.9 -36.5,-2.48 -7.97,-0.59 -23.95,-1.98 -35.5,-3.09 -11.55,-1.11 -32.92,-3.37 -47.5,-5.02 -14.58,-1.65 -40,-4.79 -56.5,-6.98 -16.5,-2.19 -40.58,-5.56 -53.5,-7.5 -12.92,-1.93 -31.38,-4.86 -41,-6.51 -9.63,-1.64 -23.8,-4.12 -31.5,-5.51 -7.7,-1.38 -24.35,-4.49 -37,-6.9 -12.65,-2.41 -30.42,-5.8 -39.5,-7.52 -9.08,-1.73 -26.85,-5.34 -39.5,-8.01 -12.65,-2.68 -40.78,-8.96 -62.5,-13.96 -21.72,-5 -57.72,-13.62 -80,-19.16 -22.28,-5.54 -45,-11.35 -50.5,-12.91 -5.5,-1.56 -24.85,-6.94 -43,-11.96 -18.15,-5.01 -40.88,-11.36 -50.5,-14.1 -9.63,-2.74 -29.65,-8.61 -44.5,-13.03 -14.849,-4.43 -37.799,-11.42 -51,-15.55 -13.2,-4.13 -44.25,-14.05 -69,-22.03 -24.75,-7.99 -52.2,-16.76 -61,-19.49 -8.799,-2.73 -18.919,-5.84 -22.5,-6.91 -3.58,-1.06 -13.7,-3.73 -22.5,-5.93 -8.799,-2.19 -21.849,-5.07 -29,-6.39 -7.15,-1.32 -21.33,-3.55 -31.5,-4.96 -10.169,-1.41 -26.38,-3.24 -36,-4.07 -11.27,-0.97 -29.69,-1.51 -51.75,-1.51 -22.049,-0.01 -40.75,0.53 -52.5,1.51 -10.04,0.84 -21.85,1.98 -26.25,2.53 -4.4,0.56 -12.95,1.64 -19,2.41 -6.05,0.77 -17.3,2.54 -25,3.94 -7.7,1.41 -21.88,4.31 -31.5,6.46 -9.63,2.15 -25.82,6.19 -36,8.97 -10.18,2.78 -31.32,9.31 -47,14.49 -15.68,5.19 -36.6,12.68 -46.5,16.65 -9.9,3.97 -25.65,10.61 -35,14.74 -9.35,4.14 -27.35,12.61 -40,18.83 -12.65,6.22 -30.2,15.2 -39,19.97 -8.8,4.77 -25.9,14.55 -38,21.73 -12.1,7.19 -29.42,17.8 -38.4995,23.59 -9.08,5.79 -24.83,16.21 -35,23.16 -10.17,6.95 -25.25,17.58 -33.5,23.61 -8.25,6.04 -18.27,13.43 -22.26003,16.44 L -0.0195312,486.5 4.6875e-4,2160 H 5120 c 0,-1436.85 -0.23,-1854 -0.5,-1854 -0.27,0 -3.54,2.17 -7.25,4.82 -3.71,2.65 -19.57,13.39 -35.25,23.88 -15.68,10.48 -34.91,23.16 -42.75,28.18 -7.84,5.02 -26.51,16.48 -41.5,25.47 -14.99,8.99 -33.32,19.73 -40.75,23.87 -7.43,4.13 -24.07,13.11 -37,19.96 -12.93,6.85 -32.95,17.22 -44.5,23.04 -11.55,5.83 -27.52,13.62 -35.5,17.31 -7.98,3.69 -20.8,9.62 -28.5,13.18 -7.7,3.56 -22.55,10.19 -33,14.74 -10.45,4.55 -23.27,10.08 -28.5,12.28 -5.23,2.21 -13.77,5.61 -19,7.56 -5.23,1.95 -16.25,5.64 -24.5,8.2 -8.25,2.56 -21.07,6.18 -28.5,8.04 -7.43,1.87 -20.02,4.5 -28,5.85 -7.98,1.34 -19.9,3.15 -26.5,4.02 -6.6,0.87 -17.85,2.03 -25,2.59 -7.15,0.56 -28.52,1.01 -47.5,0.99 -18.98,-0.01 -40.13,-0.46 -47,-0.99 -6.87,-0.53 -18.35,-1.66 -25.5,-2.52 -7.15,-0.86 -20.88,-2.7 -30.5,-4.1 -9.62,-1.4 -24.93,-3.87 -34,-5.5 -9.07,-1.63 -24.15,-4.72 -33.5,-6.88 -9.35,-2.15 -26,-6.15 -37,-8.89 -11,-2.73 -28.1,-7.28 -38,-10.12 -9.9,-2.83 -26.55,-7.8 -37,-11.03 -10.45,-3.24 -33.63,-10.79 -51.5,-16.8 -17.88,-6 -45.32,-15.67 -61,-21.48 -15.68,-5.81 -38.85,-14.6 -51.5,-19.54 -12.65,-4.94 -32.9,-13.01 -45,-17.94 -12.1,-4.92 -27.63,-11.28 -34.5,-14.12 -6.87,-2.84 -14.97,-6.22 -18,-7.51 -3.03,-1.3 -11.12,-4.71 -18,-7.58 -6.87,-2.88 -25.32,-10.75 -41,-17.51 -15.68,-6.75 -39.3,-17 -52.5,-22.77 -13.2,-5.77 -32.78,-14.43 -43.5,-19.23 -10.72,-4.8 -23.32,-10.41 -28,-12.47 -4.68,-2.05 -14.57,-6.43 -22,-9.73 -7.43,-3.3 -33.53,-15.01 -58,-26.02 -24.47,-11.02 -56.65,-25.52 -71.5,-32.23 -14.85,-6.71 -31.28,-14.13 -36.5,-16.5 -5.22,-2.36 -17.15,-7.67 -26.5,-11.79 -9.35,-4.13 -24.2,-10.66 -33,-14.52 -8.8,-3.86 -21.18,-9.14 -27.5,-11.74 -6.32,-2.6 -21.63,-8.76 -34,-13.7 -12.37,-4.93 -29.7,-11.68 -38.5,-14.99 -8.8,-3.31 -27.03,-9.74 -40.5,-14.28 -13.47,-4.54 -29.45,-9.84 -35.5,-11.79 -6.05,-1.94 -15.5,-4.89 -21,-6.54 -5.5,-1.66 -17.43,-5.04 -26.5,-7.51 -9.07,-2.48 -21.68,-5.86 -28,-7.5 -6.32,-1.65 -19.82,-4.82 -30,-7.04 -10.18,-2.22 -28.18,-5.83 -40,-8.01 -11.82,-2.18 -28.47,-4.88 -37,-6.01 -8.53,-1.12 -23.82,-2.98 -34,-4.12 -10.18,-1.14 -27.72,-2.49 -39,-3 -11.28,-0.5 -35.57,-0.85 -54,-0.77 -18.43,0.08 -35.75,0.3 -38.5,0.48 z"
       fill="#0a282a"
       id="Wave4" />
    <path
       d="m 3079,375.56 c -9.07,0.7 -23.25,2.02 -31.5,2.93 -8.25,0.9 -24.22,3.16 -35.5,5.03 -11.28,1.86 -26.13,4.56 -33,6 -6.88,1.44 -19.7,4.42 -28.5,6.61 -8.8,2.19 -23.65,6.19 -33,8.88 -9.35,2.68 -28.47,8.69 -42.5,13.35 -14.03,4.65 -35.63,12.51 -48,17.47 -12.38,4.95 -32.4,13.36 -44.5,18.69 -12.1,5.32 -35.28,16.37 -51.5,24.53 -16.22,8.17 -36.7,18.74 -45.5,23.49 -8.8,4.76 -22.3,12.26 -30,16.69 -7.7,4.42 -20.07,11.67 -27.5,16.09 -7.43,4.43 -19.57,11.86 -27,16.5 -7.43,4.65 -20.25,12.74 -28.5,17.98 -8.25,5.25 -26.03,16.96 -39.5,26.03 -13.47,9.08 -33.5,22.81 -44.5,30.52 -11,7.72 -28.78,20.55 -39.5,28.51 -10.72,7.97 -26.25,19.53 -34.5,25.7 -8.25,6.16 -21.07,15.85 -28.5,21.52 -7.43,5.67 -24.3,18.67 -37.5,28.89 -13.2,10.22 -32.51,25.31 -42.91,33.55 -10.4,8.24 -27.78,22.18 -38.62,30.98 -10.84,8.8 -30,24.33 -42.58,34.5 -12.58,10.17 -26.93,21.9 -31.88,26.06 -4.96,4.15 -22.29,18.31 -38.51,31.45 -16.22,13.15 -34.45,27.93 -40.5,32.85 -6.05,4.93 -22.03,17.77 -35.5,28.55 -13.47,10.78 -33.72,26.84 -45,35.69 -11.28,8.85 -27.03,21.02 -35,27.05 -7.97,6.03 -22.38,16.15 -32,22.48 -9.63,6.33 -22,14.22 -27.5,17.53 -5.5,3.31 -15.17,8.87 -21.5,12.35 -6.33,3.48 -19.6,10.32 -29.5,15.19 -9.9,4.87 -25.88,11.95 -35.5,15.72 -9.63,3.78 -22.9,8.7 -29.5,10.94 -6.6,2.23 -19.42,6.06 -28.5,8.49 -9.08,2.44 -21,5.35 -26.5,6.48 -5.5,1.13 -13.83,2.73 -18.5,3.56 -4.67,0.83 -15.7,2.54 -24.5,3.8 -14.55,2.1 -19.58,2.3 -55.5,2.3 -32.59,0 -41.69,-0.31 -52,-1.78 -6.88,-0.99 -17.22,-2.46 -23,-3.28 -5.78,-0.82 -18.15,-3.04 -27.5,-4.93 -9.35,-1.89 -26.45,-6.13 -38,-9.42 -11.55,-3.3 -27.3,-8.2 -35,-10.91 -7.7,-2.7 -20.97,-7.71 -29.5,-11.13 -8.53,-3.42 -23.83,-10.04 -34,-14.73 -10.17,-4.68 -25.03,-11.91 -33,-16.06 -7.97,-4.16 -22.38,-11.93 -32,-17.28 -9.63,-5.34 -26.72,-15.33 -38,-22.2 -11.28,-6.86 -34,-20.93 -50.5,-31.27 -16.5,-10.33 -43.28,-26.98 -59.5,-37 -16.22,-10.02 -43.22,-26.76 -60,-37.19 -16.78,-10.44 -39.28,-24.38 -50,-30.98 -10.72,-6.6 -29.17,-17.63 -41,-24.51 -11.83,-6.89 -30.5,-17.28 -41.5,-23.11 -11,-5.83 -27.88,-14.41 -37.5,-19.08 -9.63,-4.66 -25.38,-11.83 -35,-15.94 -9.63,-4.1 -23.8,-9.8 -31.5,-12.66 -7.7,-2.86 -22.55,-8.05 -33,-11.53 -10.45,-3.49 -24.17,-7.73 -30.5,-9.43 -6.33,-1.7 -19.15,-4.91 -28.5,-7.13 -9.35,-2.21 -23.75,-5.31 -32,-6.89 -8.25,-1.57 -19.5,-3.55 -25,-4.4 -5.5,-0.85 -15.17,-2.23 -21.5,-3.07 -6.33,-0.83 -19.15,-2.28 -28.5,-3.22 -13.13,-1.31 -27.02,-1.71 -61,-1.73 -43.92,-0.02 -44.04,-0.02 -68,3.18 -13.2,1.76 -32.77,4.8 -43.5,6.75 -10.73,1.96 -28.73,5.58 -40,8.05 -11.27,2.47 -31.52,7.42 -45,11.01 -13.48,3.6 -29.23,7.89 -35,9.54 -5.77,1.65 -17.7,5.24 -26.5,7.97 -8.8,2.74 -28.38,9.2 -43.5,14.35 -15.13,5.16 -33.13,11.39 -40,13.86 -6.88,2.46 -19.02,6.94 -27,9.95 -7.98,3.01 -23.5,8.95 -34.5,13.21 -11,4.25 -31.7,12.58 -46,18.51 -14.3,5.93 -34.78,14.61 -45.5,19.29 -10.73,4.68 -26.48,11.64 -35,15.47 -8.53,3.83 -25.4,11.56 -37.4998,17.17 -12.1,5.61 -38.1,18.16 -57.78,27.88 L -0.0498047,953.5 1.95313e-4,2160 H 5120 c 0,-1487.06 -0.17,-1574.94 -1.5,-1574.5 -0.82,0.27 -9.26,6.26 -18.75,13.3 -9.49,7.04 -21.3,15.74 -26.25,19.33 -4.95,3.6 -12.82,9.24 -17.5,12.54 -4.68,3.31 -19.52,13.46 -33,22.55 -13.48,9.1 -35.52,23.64 -49,32.31 -13.48,8.68 -28.32,18.12 -33,20.98 -4.68,2.87 -12.32,7.57 -17,10.46 -4.68,2.89 -19.07,11.44 -32,18.99 -12.93,7.56 -27.1,15.78 -31.5,18.26 -4.4,2.48 -15.43,8.45 -24.5,13.26 -9.07,4.82 -25.95,13.61 -37.5,19.55 -11.55,5.94 -30.68,15.39 -42.5,21 -11.82,5.62 -30.27,14.04 -41,18.73 -10.73,4.68 -27.82,11.86 -38,15.96 -10.18,4.1 -27.5,10.75 -38.5,14.76 -11,4.02 -30.13,10.46 -42.5,14.32 -12.38,3.85 -29.25,8.83 -37.5,11.05 -8.25,2.22 -19.5,4.95 -25,6.06 -5.5,1.11 -15.18,2.8 -21.5,3.76 -9.33,1.42 -18.38,1.75 -48,1.76 -32.49,0 -38.31,-0.24 -53,-2.27 -9.07,-1.25 -24.82,-3.85 -35,-5.78 -10.18,-1.92 -27.05,-5.67 -37.5,-8.32 -10.45,-2.65 -26.65,-7.19 -36,-10.09 -9.35,-2.9 -24.2,-7.86 -33,-11.02 -8.8,-3.17 -24.77,-9.13 -35.5,-13.26 -10.73,-4.12 -28.27,-11.31 -39,-15.96 -10.73,-4.66 -29.85,-13.3 -42.5,-19.21 -12.65,-5.9 -36.5,-17.5 -53,-25.78 -16.5,-8.27 -38.55,-19.52 -49,-25.01 -10.45,-5.48 -31.82,-16.96 -47.5,-25.51 -15.68,-8.54 -47.63,-26.2 -71,-39.23 -23.38,-13.03 -57.8,-32.24 -76.5,-42.69 -18.7,-10.45 -48.63,-27.09 -66.5,-36.99 -17.88,-9.9 -40.82,-22.54 -51,-28.08 -10.18,-5.54 -29.75,-16 -43.5,-23.24 -13.75,-7.23 -48.4,-24.79 -77,-39 -28.6,-14.21 -56.72,-27.94 -62.5,-30.51 -5.78,-2.57 -22.2,-9.84 -36.5,-16.15 -14.3,-6.32 -36.13,-15.66 -48.5,-20.77 -12.38,-5.1 -30.38,-12.3 -40,-16 -9.63,-3.7 -26.95,-10.02 -38.5,-14.04 -11.55,-4.02 -30.22,-10.27 -41.5,-13.88 -11.28,-3.62 -26.13,-8.19 -33,-10.16 -6.88,-1.97 -20.15,-5.58 -29.5,-8.01 -9.35,-2.44 -23.75,-5.75 -32,-7.37 -8.25,-1.61 -21.3,-3.85 -29,-4.98 -7.7,-1.12 -20.3,-2.72 -28,-3.57 -7.7,-0.84 -21.2,-1.98 -30,-2.54 -8.8,-0.56 -28.82,-0.95 -44.5,-0.87 -15.68,0.08 -35.93,0.72 -45,1.42 z"
       fill="#003737"
       id="Wave3" />
    <path
       d="m 3132.5,1023 c -7.7,0.47 -19.18,1.38 -25.5,2.01 -6.32,0.64 -18.93,2.03 -28,3.11 -9.07,1.07 -24.6,3.31 -34.5,4.97 -9.9,1.67 -23.63,4.15 -30.5,5.52 -6.88,1.36 -20.38,4.28 -30,6.47 -9.63,2.2 -21.32,5.07 -26,6.39 -4.68,1.31 -14.57,4.03 -22,6.03 -7.43,2.01 -22.95,6.53 -34.5,10.04 -11.55,3.52 -30.22,9.52 -41.5,13.32 -11.28,3.81 -29.28,10.08 -40,13.93 -10.72,3.85 -31.88,11.73 -47,17.51 -15.13,5.78 -39.43,15.32 -54,21.2 -14.57,5.88 -33.47,13.63 -42,17.22 -8.53,3.59 -21.57,9.12 -29,12.29 -7.43,3.16 -22.28,9.46 -33,13.99 -10.72,4.53 -52.35,22.31 -92.5,39.52 -40.15,17.2 -88.97,38.03 -108.5,46.27 -19.53,8.25 -51.47,21.6 -71,29.67 -19.53,8.08 -49.68,20.32 -67,27.21 -17.32,6.89 -43.43,17.16 -58,22.83 -14.57,5.67 -34.38,13.32 -44,17.01 -9.63,3.68 -28.53,10.74 -42,15.68 -13.47,4.94 -35.3,12.82 -48.5,17.51 -13.2,4.7 -46.5,16.15 -74,25.46 -27.5,9.31 -58.33,19.42 -68.5,22.46 -10.17,3.05 -24.8,7.5 -32.5,9.9 -7.7,2.4 -20.75,6.2 -29,8.45 -8.25,2.24 -28.28,7.25 -44.5,11.14 -16.22,3.88 -41.65,9.45 -56.5,12.38 -14.85,2.92 -34.88,6.5 -44.5,7.95 -9.63,1.45 -22.45,3.29 -28.5,4.1 -6.05,0.81 -20.67,2.47 -32.5,3.69 -19.33,1.99 -26.99,2.22 -76,2.24 -50.97,0.03 -55.76,-0.12 -74,-2.31 -10.72,-1.28 -26.03,-3.42 -34,-4.75 -7.97,-1.33 -21.47,-3.8 -30,-5.48 -8.53,-1.69 -22.25,-4.81 -30.5,-6.93 -8.25,-2.12 -23.78,-6.64 -34.5,-10.03 -10.72,-3.4 -28.95,-9.93 -40.5,-14.5 -11.55,-4.58 -27.53,-11.22 -35.5,-14.76 -7.97,-3.55 -21.92,-10.16 -31,-14.71 -9.08,-4.54 -25.95,-13.33 -37.5,-19.52 -11.55,-6.2 -32.7,-18 -47,-26.23 -14.3,-8.22 -35,-20.13 -46,-26.45 -11,-6.33 -28.1,-16.01 -38,-21.52 -9.9,-5.5 -26.33,-14.31 -36.5,-19.57 -10.17,-5.26 -26.83,-13.38 -37,-18.05 -10.17,-4.67 -25.7,-11.41 -34.5,-14.99 -8.8,-3.58 -26.13,-9.89 -38.5,-14.01 -12.38,-4.12 -29.25,-9.32 -37.5,-11.55 -8.25,-2.22 -19.16,-4.96 -24.25,-6.08 -5.09,-1.12 -17.24,-3.4 -27,-5.07 -9.76,-1.67 -25.4,-3.93 -34.75,-5.02 -9.35,-1.09 -24.88,-2.48 -34.5,-3.09 -10.86,-0.68 -31.72,-0.88 -55,-0.5 -24.31,0.38 -45.76,1.31 -61,2.62 -12.92,1.11 -34.3,3.17 -47.5,4.56 -13.2,1.4 -34.35,3.9 -47,5.55 -12.65,1.66 -34.02,4.8 -47.5,7 -13.48,2.19 -33.05,5.56 -43.5,7.49 -10.45,1.93 -30.02,5.76 -43.5,8.52 -13.48,2.76 -35.3,7.44 -48.5,10.42 -13.2,2.97 -38.18,8.99 -55.5,13.38 -17.32,4.38 -40.05,10.27 -50.5,13.08 -10.45,2.81 -28.23,7.82 -39.5,11.14 -11.27,3.32 -32.2,9.64 -46.5,14.05 -14.3,4.41 -33.65,10.49 -43,13.51 -9.35,3.03 -26.9,8.89 -39,13.02 -12.1,4.13 -31.9,11.02 -44,15.31 -12.1003,4.28 -30.7803,11.01 -41.5003,14.95 -10.73,3.94 -24.22,8.97 -30,11.18 -5.78,2.2 -15.13,5.89 -20.78,8.19 l -10.2900125,4.18 0.07,746.5 H 5120 c 0,-826.93 -0.34,-1066.98 -0.75,-1066.96 -0.41,0.01 -9.07,8.24 -19.25,18.26 -10.18,10.03 -22.77,22.08 -28,26.77 -5.23,4.69 -14.9,13.04 -21.5,18.54 -6.6,5.5 -17.85,14.67 -25,20.36 -7.15,5.7 -25.38,19.62 -40.5,30.95 -15.13,11.32 -32.45,24.23 -38.5,28.67 -6.05,4.44 -15.44,11.18 -20.88,14.99 -5.43,3.81 -13.53,9.35 -18,12.31 -4.46,2.97 -13.52,8.64 -20.12,12.6 -6.6,3.96 -18.52,10.61 -26.5,14.79 -7.98,4.18 -21.93,10.82 -31,14.76 -9.07,3.93 -23.25,9.6 -31.5,12.6 -8.25,2.99 -20.63,6.99 -27.5,8.88 -6.88,1.9 -17.79,4.58 -24.25,5.96 -6.46,1.39 -17.26,3.4 -24,4.47 -6.74,1.08 -21.48,2.68 -32.75,3.56 -12.92,1.01 -39.35,1.82 -71.5,2.19 -34.22,0.39 -58.08,0.18 -72.5,-0.62 -11.82,-0.66 -33.2,-2.52 -47.5,-4.14 -14.3,-1.62 -37.02,-4.54 -50.5,-6.48 -13.48,-1.95 -33.95,-5.09 -45.5,-6.99 -11.55,-1.9 -26.18,-4.37 -32.5,-5.49 -6.32,-1.13 -23.2,-4.32 -37.5,-7.09 -14.3,-2.77 -37.25,-7.46 -51,-10.41 -13.75,-2.95 -31.3,-6.77 -39,-8.48 -7.7,-1.72 -26.6,-6.05 -42,-9.64 -15.4,-3.59 -48.02,-11.4 -72.5,-17.36 -24.48,-5.96 -53.95,-13.31 -65.5,-16.33 -11.55,-3.01 -37.2,-9.82 -57,-15.13 -19.8,-5.31 -45.68,-12.36 -57.5,-15.68 -11.82,-3.31 -41.07,-11.68 -65,-18.58 -23.93,-6.91 -49.35,-14.26 -56.5,-16.33 -7.15,-2.07 -19.3,-5.64 -27,-7.94 -7.7,-2.3 -21.2,-6.36 -30,-9.02 -8.8,-2.67 -32.65,-9.87 -53,-16 -20.35,-6.13 -62.43,-18.77 -93.5,-28.09 -31.07,-9.32 -61,-18.28 -66.5,-19.9 -5.5,-1.62 -27.78,-8.18 -49.5,-14.57 -21.72,-6.4 -56.38,-16.55 -77,-22.56 -20.63,-6.02 -47.63,-13.88 -60,-17.49 -12.38,-3.61 -28.35,-7.84 -35.5,-9.42 -7.15,-1.57 -24.03,-4.66 -37.5,-6.86 -13.47,-2.2 -30.13,-4.7 -37,-5.57 -6.88,-0.86 -20.38,-2.24 -30,-3.07 -9.63,-0.83 -32.35,-1.69 -50.5,-1.91 -18.15,-0.22 -39.3,-0.02 -47,0.45 z"
       fill="#67a9aa"
       id="Wave2" />
    <path
       d="m 3158,1508.08 c -7.97,0.5 -23.95,1.6 -35.5,2.46 -11.55,0.86 -34.5,2.89 -51,4.52 -16.5,1.63 -39,4.07 -50,5.42 -11,1.35 -28.55,4.02 -39,5.94 -10.45,1.92 -26.2,5.05 -35,6.95 -8.8,1.91 -26.35,5.8 -39,8.65 -12.65,2.85 -36.05,8.47 -52,12.49 -15.95,4.02 -39.13,10.09 -51.5,13.5 -12.38,3.4 -36,10.21 -52.5,15.13 -16.5,4.92 -47.32,14.73 -68.5,21.8 -21.18,7.07 -48.63,16.68 -61,21.35 -12.38,4.68 -28.35,10.84 -35.5,13.69 -7.15,2.86 -23.13,9.49 -35.5,14.74 -12.38,5.24 -29.03,12.21 -37,15.47 -7.97,3.26 -26.43,10.67 -41,16.47 -14.57,5.8 -41.13,16.17 -59,23.05 -17.88,6.88 -47.13,17.81 -65,24.3 -17.88,6.48 -45.55,16.15 -61.5,21.48 -15.95,5.33 -40.93,13.5 -55.5,18.16 -14.57,4.66 -37.53,11.61 -51,15.46 -13.47,3.84 -33.05,9.16 -43.5,11.82 -10.45,2.66 -24.85,6.21 -32,7.89 -7.15,1.67 -18.85,4.18 -26,5.56 -7.15,1.38 -25.38,4.54 -40.5,7.02 -15.13,2.48 -32.22,5.2 -38,6.04 -5.78,0.84 -19.95,2.67 -31.5,4.07 -11.55,1.41 -32.92,3.87 -47.5,5.48 -14.58,1.6 -38.2,4.05 -52.5,5.43 -14.3,1.38 -35.9,3.21 -48,4.08 -12.1,0.86 -38.2,2.9 -58,4.52 -19.8,1.63 -47.7,3.91 -62,5.07 -21.47,1.75 -37.06,2.2 -89.5,2.62 -39.45,0.32 -73.73,0.08 -90.5,-0.62 -14.85,-0.62 -34.65,-1.56 -44,-2.09 -9.35,-0.54 -28.25,-1.9 -42,-3.02 -13.75,-1.13 -34,-2.95 -45,-4.04 -11,-1.09 -27.42,-2.9 -36.5,-4.01 -9.08,-1.12 -25.72,-3.37 -37,-5.02 -11.28,-1.64 -27.03,-4.12 -35,-5.52 -7.97,-1.39 -20.13,-3.65 -27,-5.03 -6.88,-1.38 -19.47,-4.07 -28,-5.97 -8.53,-1.9 -24.5,-5.68 -35.5,-8.39 -11,-2.72 -30.58,-7.91 -43.5,-11.54 -12.92,-3.63 -31.15,-9.1 -40.5,-12.14 -9.35,-3.05 -26,-8.93 -37,-13.06 -11,-4.14 -29.67,-11.69 -41.5,-16.79 -11.83,-5.1 -30.73,-13.42 -42,-18.47 -11.27,-5.06 -30.4,-13.48 -42.5,-18.7 -12.1,-5.23 -26.95,-11.52 -33,-13.98 -6.05,-2.46 -14.6,-5.82 -19,-7.47 -4.4,-1.65 -12.5,-4.58 -18,-6.53 -5.5,-1.94 -14.27,-4.86 -19.5,-6.48 -5.23,-1.61 -15.8,-4.67 -23.5,-6.8 -7.7,-2.12 -19.85,-5.23 -27,-6.89 -7.15,-1.67 -17.73,-3.93 -23.5,-5.02 -5.77,-1.1 -15.45,-2.73 -21.5,-3.62 -6.05,-0.89 -20.9,-2.49 -33,-3.55 -14.34,-1.25 -30.71,-1.93 -47,-1.93 -13.75,-0.01 -31.19,0.43 -38.75,0.98 -7.56,0.54 -20.73,1.89 -29.25,2.99 -8.52,1.1 -19.44,2.68 -24.25,3.52 -4.81,0.83 -12.58,2.22 -17.25,3.08 -4.67,0.87 -14.58,2.91 -22,4.55 -7.42,1.64 -21.6,5.01 -31.5,7.48 -9.9,2.47 -25.65,6.52 -35,9.01 -9.35,2.48 -29.38,8.57 -44.5,13.55 -15.13,4.97 -36.27,12.31 -47,16.32 -10.73,4.01 -26.48,10.07 -35,13.48 -8.52,3.41 -24.73,10.16 -36,15 -11.27,4.84 -31.3,13.74 -44.5,19.77 -13.2,6.03 -44.7,20.52 -70,32.19 -25.3,11.68 -59.5,27.55 -76,35.26 -16.5,7.72 -38.78,18.52 -49.5,23.99 -10.72,5.47 -33.11,17.23 -49.73,26.13 L 0.03,1905.5 0,2160 h 5120 c 0,-577.5 -0.25,-641.86 -1.25,-641.31 -0.69,0.38 -8.23,5.95 -16.75,12.37 -8.52,6.42 -23.6,17.08 -33.5,23.68 -9.9,6.61 -24.3,15.7 -32,20.21 -7.7,4.5 -26.38,14.37 -41.5,21.91 -15.13,7.55 -34.7,16.7 -43.5,20.32 -8.8,3.63 -23.88,9.53 -33.5,13.12 -9.63,3.58 -27.18,9.54 -39,13.24 -11.82,3.71 -32.75,9.56 -46.5,13.02 -13.75,3.46 -33.55,8.11 -44,10.34 -10.45,2.23 -26.88,5.44 -36.5,7.12 -9.63,1.69 -25.15,4.14 -34.5,5.45 -9.35,1.31 -22.85,3.07 -30,3.91 -7.15,0.85 -19.75,2.23 -28,3.07 -8.25,0.84 -25.57,2.19 -38.5,3.01 -12.93,0.81 -39.7,2 -59.5,2.65 -20.99,0.67 -52.05,0.91 -74.5,0.55 -21.18,-0.33 -48.63,-1.07 -61,-1.64 -12.38,-0.57 -35.55,-1.95 -51.5,-3.08 -15.95,-1.12 -42.95,-3.38 -60,-5.02 -17.05,-1.64 -40.45,-4.08 -52,-5.42 -11.55,-1.34 -25.95,-3.1 -32,-3.91 -6.05,-0.81 -22.7,-3.09 -37,-5.07 -14.3,-1.98 -42.88,-6.32 -63.5,-9.63 -20.63,-3.32 -47.4,-7.82 -59.5,-10.01 -12.1,-2.19 -35.95,-6.65 -53,-9.91 -17.05,-3.25 -42.93,-8.38 -57.5,-11.38 -14.57,-3 -36.4,-7.54 -48.5,-10.09 -12.1,-2.54 -46.97,-10.19 -77.5,-17 -30.53,-6.81 -60.22,-13.51 -66,-14.89 -5.78,-1.38 -20.63,-4.83 -33,-7.67 -12.38,-2.84 -29.03,-6.65 -37,-8.46 -7.97,-1.82 -20.8,-4.72 -28.5,-6.46 -7.7,-1.74 -28.18,-6.08 -45.5,-9.64 -17.32,-3.56 -39.15,-7.81 -48.5,-9.44 -9.35,-1.62 -28.03,-4.76 -41.5,-6.97 -13.47,-2.21 -29.9,-4.89 -36.5,-5.96 -6.6,-1.07 -18.3,-2.87 -26,-4.01 -7.7,-1.14 -25.47,-3.62 -39.5,-5.5 -14.03,-1.88 -35.85,-4.55 -48.5,-5.93 -12.65,-1.38 -27.95,-2.99 -34,-3.57 -6.05,-0.59 -19.1,-1.75 -29,-2.59 -13.03,-1.11 -35.96,-1.63 -83,-1.88 -35.75,-0.2 -71.53,0.05 -79.5,0.55 z"
       fill="#004f50"
       id="Wave1" />
  </g>
  <g
     id="Foreground"
     style="display:inline"
     inkscape:label="Foreground">
    <path
       d="m 4093,-902.45 c -0.82,0.19 -9.15,0.83 -18.5,1.42 -9.35,0.59 -25.1,1.98 -35,3.1 -9.9,1.11 -25.99,3.36 -35.75,4.98 -9.76,1.62 -25.06,4.57 -34,6.54 -8.94,1.98 -21.2,4.94 -27.25,6.57 -6.05,1.64 -18.88,5.47 -28.5,8.51 -9.63,3.05 -25.82,8.81 -36,12.79 -10.18,3.99 -27.72,11.76 -39,17.27 -11.28,5.52 -24.55,12.4 -29.5,15.3 -4.95,2.91 -16.88,10.58 -26.5,17.07 -9.63,6.48 -22.44,15.75 -28.47,20.59 -6.03,4.85 -15.7,13.31 -21.48,18.81 -5.78,5.5 -15.16,14.95 -20.84,21 -5.68,6.05 -14.93,17.08 -20.55,24.5 -5.62,7.43 -13.77,19.13 -18.12,26 -4.34,6.88 -11.09,18.8 -15.01,26.5 -3.91,7.7 -9.31,19.18 -11.98,25.5 -2.68,6.33 -6.84,17.35 -9.24,24.5 -2.41,7.15 -5.97,19.53 -7.92,27.5 -1.95,7.98 -4.6,20.8 -5.89,28.5 -1.29,7.7 -2.88,19.18 -3.53,25.5 -0.78,7.61 -1.01,23.34 -0.69,46.5 0.4,28.85 0.86,37.37 2.59,48.5 1.15,7.43 3.24,19.58 4.63,27 1.4,7.43 4.09,19.8 5.98,27.5 1.9,7.7 5.49,20.75 7.99,29 2.51,8.25 6.64,20.85 9.2,28 2.55,7.15 7.59,19.98 11.19,28.5 3.6,8.53 10.67,23.83 15.7,34 5.03,10.18 12.51,24.58 16.63,32 4.12,7.43 9.65,17.1 12.3,21.5 2.64,4.4 9.97,15.88 16.28,25.5 6.31,9.63 16.93,25.15 23.6,34.5 6.66,9.35 15.69,21.5 20.06,27 4.36,5.5 13.56,16.75 20.44,25 6.87,8.2501 19.56,22.6501 28.2,32.0001 8.64,9.35 25.32,26.46 37.07,38.01 11.75,11.56 25.86,25.07 31.36,30.03 5.5,4.960022 17.65,15.56 27,23.55 9.35,8 22.4,18.82 29,24.06 6.6,5.24 19.88,15.39 29.5,22.55 9.63,7.15 27.4,19.86 39.5,28.23 12.1,8.3699 27.63,18.7299 34.5,23.0199 6.88,4.29 22.4,13.66 34.5,20.83 12.1,7.16 28.98,16.91 37.5,21.67 8.52,4.76 24.73,13.3 36,18.99 11.27,5.68 28.6,14.04 38.5,18.56 9.9,4.52 25.2,11.37 34,15.21 8.8,3.84 22.75,9.69 31,12.99 8.25,3.3 20.4,8.03 27,10.49 6.6,2.47 20.32,7.39 30.5,10.93 10.18,3.54 26.38,8.87 36,11.85 9.63,2.97 24.7,7.43 33.5,9.91 8.8,2.48 23.2,6.31 32,8.52 8.8,2.21 22.07,5.36 29.5,7 7.43,1.64 14.18,3.22 15,3.52 0.82,0.29 7.57,1.67 15,3.05 7.43,1.38 22.95,4.08 34.5,5.99 11.55,1.92 30,4.6 41,5.95 11,1.36 26.75,3 35,3.64 8.25,0.64 20.63,1.51 27.5,1.94 6.88,0.43 35.45,0.66 63.5,0.51 36.99,-0.2 55.26,-0.71 66.5,-1.83 8.52,-0.86 21.35,-2.27 28.5,-3.14 7.15,-0.88 17.5,-2.29 23,-3.14 5.5,-0.85 20.57,-3.79 33.5,-6.53 12.93,-2.74 29.57,-6.58 37,-8.53 7.43,-1.95 19.8,-5.57 27.5,-8.05 7.7,-2.48 20.98,-7.21 29.5,-10.5 8.52,-3.29 22.48,-9.13 31,-12.99 8.52,-3.85 22.48,-10.84 31,-15.52 8.52,-4.69 21.57,-12.35 29,-17.03 7.43,-4.68 19.35,-12.88 26.5,-18.23 7.15,-5.34 17.95,-14.15 24,-19.57 6.05,-5.42 15.24,-14.14 20.42,-19.39 5.18,-5.25 13.73,-14.72 19.01,-21.05 5.27,-6.32 12.33,-15.32 15.69,-20 3.35,-4.67 8.57,-12.32 11.59,-17 3.02,-4.67 8.47,-13.8999 12.11,-20.4999 3.63,-6.6 9.51,-18.52 13.05,-26.5 3.55,-7.9699 8.31,-19.9 10.59,-26.5 2.28,-6.6 5.28,-16.05 6.68,-21 1.39,-4.94999 3.63,-13.94999 4.97,-19.99998 1.34,-6.05002 3.31,-16.62002 4.36,-23.50002 1.06,-6.87 2.45,-18.12 3.09,-25 0.75,-8.01 0.98,-23.45 0.65,-43.0001 -0.32,-18.68 -1.14,-35.54 -2.12,-43.5 -0.88,-7.15 -2.74,-19.3 -4.12,-27 -1.39,-7.7 -4.57,-22.32 -7.07,-32.5 -2.51,-10.17 -7.92,-28.62 -12.02,-41 -4.11,-12.37 -10.83,-30.6 -14.93,-40.5 -4.1,-9.9 -12.33,-27.9 -18.3,-40 -5.96,-12.1 -15.12,-29.42 -20.34,-38.5 -5.21,-9.07 -13.66,-23.02 -18.76,-31 -5.1,-7.97 -13.8,-21.02 -19.33,-29 -5.53,-7.97 -14.77,-20.8 -20.53,-28.5 -5.77,-7.7 -18.18,-23.22 -27.59,-34.5 -9.4,-11.27 -23.46,-27.25 -31.23,-35.5 -7.77,-8.25 -25.32,-26.04 -39,-39.54 -13.68,-13.5 -31.85,-30.61 -40.37,-38.02 -8.52,-7.42 -20.68,-17.79 -27,-23.05 -6.32,-5.26 -15.1,-12.37 -19.5,-15.8 -4.4,-3.44 -15.88,-12.2 -25.5,-19.47 -9.63,-7.27 -23.57,-17.52 -31,-22.77 -7.43,-5.24 -18,-12.45 -23.5,-16.02 -5.5,-3.56 -13.6,-8.75 -18,-11.53 -4.4,-2.77 -12.73,-7.96 -18.5,-11.51 -5.77,-3.56 -15.45,-9.4 -21.5,-12.99 -6.05,-3.58 -16.18,-9.45 -22.5,-13.04 -6.32,-3.59 -18.25,-10.13 -26.5,-14.53 -8.25,-4.41 -25.13,-12.96 -37.5,-19.01 -12.38,-6.04 -29.25,-14.02 -37.5,-17.71 -8.25,-3.7 -23.55,-10.31 -34,-14.69 -10.45,-4.38 -23.5,-9.71 -29,-11.84 -5.5,-2.13 -17.88,-6.78 -27.5,-10.32 -9.63,-3.55 -25.82,-9.17 -36,-12.5 -10.18,-3.33 -25.48,-8.08 -34,-10.56 -8.52,-2.48 -26.52,-7.43 -40,-10.98 -13.48,-3.56 -29.68,-7.62 -36,-9.02 -6.32,-1.4 -20.73,-4.35 -32,-6.55 -11.27,-2.21 -27.48,-5.13 -36,-6.49 -8.52,-1.36 -20.23,-3.14 -26,-3.96 -5.77,-0.82 -17.02,-2.19 -25,-3.04 -7.98,-0.85 -22.38,-2.3 -32,-3.22 -13.08,-1.24 -30.01,-1.72 -67,-1.9 -27.23,-0.13 -50.18,-0.08 -51,0.11 z"
       fill="#80d4d5"
       id="Cloud11" />
    <path
       d="m -51.5003,-1018.96 c -8.8,1.01 -18.92,2.34 -22.5,2.96 -3.58,0.63 -11.45,2.26 -17.5,3.63 -6.05,1.37 -15.9497,3.87 -21.9997,5.56 -6.05,1.69 -16.63,5.21 -23.5,7.82 -6.88,2.61 -18.8,7.76 -26.5,11.43 -7.7,3.67 -18.05,8.98 -23,11.79 -4.95,2.81 -14.17,8.6 -20.5,12.86 -6.33,4.25 -17.35,12.59 -24.5,18.53 -7.15,5.93 -18.57,16.43 -25.38,23.33 -6.8,6.9 -17.07,18.4 -22.82,25.55 -5.75,7.15 -13.94,18.17 -18.21,24.5 -4.27,6.33 -9.47,14.42 -11.56,18 -2.08,3.58 -12.56,23.6 -23.29,44.5 -10.72,20.9 -21.76,41.83 -24.53,46.5 -2.77,4.67 -8.19,13.23 -12.04,19 -3.85,5.78 -11.54,16.13 -17.08,23 -5.55,6.88 -15.94,18.36 -23.09,25.53 -7.15,7.17 -17.73,16.98 -23.5,21.81 -5.77,4.83 -15.8,12.47 -22.28,16.97 -6.48,4.5 -16.15,10.85 -21.5,14.11 -5.34,3.26 -16.24,9.18 -24.22,13.17 -7.98,3.98 -19.67,9.28 -26,11.77 -6.33,2.49 -19.38,7 -29,10.01 -9.63,3.01 -27.4,8.45 -39.5,12.1 -12.1,3.65 -25.83,8.02 -30.5,9.72 -4.67,1.7 -15.25,6.11 -23.5,9.79 -8.25,3.69 -20.63,9.77 -27.5,13.52 -6.88,3.74 -17.9,10.4 -24.5,14.8 -6.6,4.39 -17.4,12.28 -24,17.53 -6.6,5.25 -19,16.55 -27.56,25.11 -8.56,8.56 -18.94,19.84 -23.06,25.06 -4.13,5.23 -10.69,14 -14.59,19.5 -3.89,5.5 -9.67,14.28 -12.84,19.5 -3.18,5.23 -9.25,16.7 -13.5,25.5 -4.25,8.8 -10.18,22.53 -13.2,30.5 -3.01,7.98 -6.85,19.23 -8.54,25 -1.68,5.78 -4.21,15.67 -5.6,22 -1.39,6.33 -3.76,19.6 -5.26,29.5 -2.5,16.49 -2.73,20.52 -2.77,48 -0.03,23.62 0.35,32.76 1.77,43 0.99,7.15 2.7,17.73 3.79,23.5 1.1,5.78 3.12,15 4.5,20.5 1.38,5.5 4.26,15.4 6.4,22 2.13,6.6 6.09,17.4 8.8,24 2.7,6.6 7.22,16.61 10.03,22.25 2.82,5.64 8.68,16.21 13.02,23.4999 4.34,7.29 10.47,16.85 13.61,21.25 3.15,4.4001 9.15,12.2801 13.35,17.5 4.2,5.23 13.49,15.3 20.64,22.3901 7.16,7.09 17.96,17.02998 24.01,22.08998 6.05,5.06006 14.37,11.66992 18.5,14.67992 4.12,3.02 10.87,7.76 15,10.53 4.12,2.7701 14.02,8.62 22,13.0101 7.98,4.39 27.1,14.41 42.5,22.27 15.4,7.86 31.6,16.32 36,18.79 4.4,2.47 13.62,8.23 20.5,12.7999 6.87,4.5601 17.45,12.2501 23.5,17.0801 6.05,4.83 17.01,14.65 24.36,21.82 7.35,7.17 17.45,17.76 22.45,23.54 4.99,5.78 12.75,15.45 17.24,21.5 4.49,6.05 11.68,16.85 15.99,24 4.31,7.15 11.75,21.1 16.54,31 4.8,9.9 10.57,23.06 12.82,29.25 2.26,6.19 7.72,23.29 12.14,38 4.42,14.71 10.11,33.05 12.64,40.75 2.53,7.7 6.36,18.5 8.52,24 2.16,5.5 7.89,17.88 12.72,27.5 4.84,9.63 10.58,20.43 12.77,24 2.19,3.58 7.94,12.13 12.77,19 4.84,6.88 12.67,17.21 17.42,22.97 4.74,5.75 12.91,14.75 18.15,20 5.25,5.24 15.6,14.61 23,20.82 7.41,6.22 19.77,15.52 27.47,20.68 7.7,5.17 18.95,12.12 25,15.46 6.05,3.34 17.3,8.96 25,12.49 7.7,3.53 23.45,9.57 35,13.43 11.55,3.86 26.51,8.18 33.25,9.59 6.74,1.41 17.99,3.48 25,4.6 7.01,1.12 21.75,2.46 32.75,2.99 12.5597,0.6 27.2497,0.6 39.4997,0.01 10.73,-0.52 24.23,-1.65 30,-2.51 5.77,-0.87 13.87,-2.21 18,-2.98 4.12,-0.77 13.12,-2.82 19.99999,-4.55 6.87,-1.74 17.90001,-4.97 24.50001,-7.18 6.6,-2.22 15.6,-5.52 20,-7.33 4.4,-1.81 12.5,-5.41 18,-8.01 5.5,-2.59 15.17,-7.64 21.5,-11.22 6.33,-3.58 17.12,-10.35 24.0003,-15.03 6.87,-4.69 15.42,-10.87 19,-13.74 3.58,-2.87 12.01,-10.34 18.74,-16.61 6.74,-6.26 15.91,-15.43 20.39,-20.38 4.48,-4.95 12.51,-14.62 17.85,-21.5 5.34,-6.87 11.96,-15.87 14.72,-20 2.76,-4.12 8.08,-12.9 11.82,-19.5 3.74,-6.6 15.2,-28.42 25.46,-48.5 10.27,-20.08 20.19,-38.97 22.05,-42 1.85,-3.03 6.71,-10.45 10.78,-16.5 4.07,-6.05 11.59,-16.17 16.71,-22.5 5.12,-6.33 16.89,-18.97 26.15,-28.11 9.26,-9.13 21.33,-20.16 26.83,-24.5 5.5,-4.34 15.4,-11.54 22,-16.01 6.6,-4.46 16.72,-10.83 22.5,-14.16 5.78,-3.33 14.55,-7.93 19.5,-10.21 4.95,-2.29 12.83,-5.75 17.5,-7.69 4.67,-1.94 14.12,-5.53 21,-7.98 6.87,-2.45 22.4,-7.37 34.5,-10.94 12.1,-3.56 27.62,-8.33 34.5,-10.58 6.87,-2.26 17.45,-6 23.5,-8.32 6.05,-2.32 17.3,-7.3 25,-11.07 7.7,-3.77 18.72,-9.52 24.5,-12.78 5.78,-3.26 15.45,-9.3 21.5,-13.42 6.05,-4.11 15.26,-10.9101 20.48,-15.11 5.21,-4.1899 14.38,-12.34 20.38,-18.12 6,-5.78 15.47,-15.67 21.04,-22 5.58,-6.3199 12.88,-15.1 16.22,-19.5 3.35,-4.4 8.99,-12.5 12.54,-18 3.54,-5.5 8.76,-14.05005 11.58,-19.00006 2.83,-4.95004 7.47,-13.95004 10.32,-20.00004 2.85,-6.0499 7.42,-16.62 10.15,-23.5 2.73,-6.87 7.14,-19.7 9.78,-28.5 2.65,-8.7999 5.96,-21.8499 7.36,-28.9999 1.41,-7.15 3.29,-17.95 4.18,-24 0.89,-6.05 2.02,-18.87 2.51,-28.5 0.54,-10.57 0.53,-25.62 -0.04,-38 -0.51,-11.27 -1.86,-26.8 -2.98,-34.5 -1.13,-7.7 -4.11,-22.32 -6.64,-32.5 -2.52,-10.17 -6.54,-24.12 -8.93,-31 -2.39,-6.87 -6.65,-17.67 -9.45,-24 -2.81,-6.32 -7.38,-15.77 -10.16,-21 -2.78,-5.22 -8.02,-14.45 -11.66,-20.5 -3.63,-6.05 -11.18,-17.07 -16.78,-24.5 -5.6,-7.42 -15.52,-19.19 -22.04,-26.14 -6.52,-6.95 -15.46,-15.97 -19.86,-20.04 -4.4,-4.06 -12.05,-10.57 -17,-14.46 -4.95,-3.89 -12.83,-9.88 -17.5,-13.32 -4.67,-3.44 -12.55,-8.75 -17.5,-11.81 -4.95,-3.05 -27.45,-14.97 -50,-26.49 -22.55,-11.52 -43.7,-22.56 -47,-24.53 -3.3,-1.97 -10.05,-6.26 -15,-9.54 -4.95,-3.28 -12.15,-8.24 -16,-11.03 -3.85,-2.79 -11.05,-8.45 -16,-12.58 -4.95,-4.13 -15.08,-13.61 -22.5,-21.07 -7.42,-7.46 -18.04,-19.17 -23.59,-26.03 -5.55,-6.85 -13.02,-16.73 -16.61,-21.96 -3.59,-5.22 -9.34,-14.22 -12.78,-20 -3.45,-5.77 -8.52,-15 -11.27,-20.5 -2.75,-5.5 -7.04,-14.95 -9.52,-21 -2.48,-6.05 -6.03,-15.5 -7.9,-21 -1.87,-5.5 -8.08,-25.3 -13.81,-44 -5.73,-18.7 -11.97,-38.27 -13.87,-43.5 -1.89,-5.22 -5.53,-14.22 -8.09,-20 -2.56,-5.77 -7.71,-16.35 -11.44,-23.5 -3.73,-7.15 -9.85,-17.72 -13.59,-23.5 -3.75,-5.77 -9.29,-13.87 -12.33,-18 -3.04,-4.12 -10.13,-12.9 -15.76,-19.5 -5.62,-6.6 -15.33,-16.98 -21.58,-23.06 -6.25,-6.09 -16.08,-14.9 -21.86,-19.59 -5.78,-4.68 -15.45,-11.9 -21.5,-16.04 -6.05,-4.14 -15.05,-9.89 -20,-12.79 -4.95,-2.9 -14.17,-7.85 -20.5,-11 -6.33,-3.16 -17.13,-8.01 -24,-10.78 -6.88,-2.77 -16.77,-6.46 -22.0003,-8.2 -5.23,-1.74 -15.35,-4.68 -22.5,-6.53 -7.15,-1.85 -15.7,-3.82 -19,-4.38 -3.3,-0.55 -11.4,-1.92 -18,-3.03 -6.6,-1.11 -20.1,-2.49 -30.00001,-3.06 -9.90002,-0.58 -23.84999,-1 -30.99999,-0.94 -7.15,0.07 -20.2,0.94 -29,1.94 z"
       fill="#1d5a5b"
       id="Cloud10" />
    <path
       d="m -211,1438.07 c -4.13,0.44 -12,1.3 -17.5,1.92 -5.5,0.61 -14.73,2 -20.5,3.09 -5.77,1.09 -16.35,3.59 -23.5,5.56 -7.15,1.97 -18.63,5.49 -25.5,7.84 -6.88,2.34 -17.45,6.34 -23.5,8.88 -6.05,2.53 -17.75,8.36 -26,12.94 -8.25,4.59 -19.5,11.18 -25,14.65 -5.5,3.46 -14.95,10.01 -21,14.53 -6.05,4.53 -17.27,14.03 -24.94,21.13 -7.67,7.09 -18.81,18.52 -24.76,25.39 -5.95,6.88 -14.58,17.9 -19.18,24.5 -4.6,6.6 -11.88,17.85 -16.17,25 -4.3,7.15 -10.71,19.08 -14.25,26.5 -3.54,7.43 -8.36,18.45 -10.71,24.5 -2.34,6.05 -5.87,16.18 -7.84,22.5 -1.97,6.33 -6.99,23.88 -11.16,39 -4.17,15.13 -9.18,32.68 -11.12,39 -1.95,6.33 -5.74,17.13 -8.44,24 -2.69,6.88 -8.64,19.93 -13.22,29 -4.58,9.08 -11.62,21.68 -15.63,28 -4.02,6.33 -11,16.45 -15.5,22.5 -4.51,6.05 -11.08,14.38 -14.61,18.5 -3.53,4.13 -10.93,12.16 -16.44,17.86 -5.52,5.71 -14.08,13.85 -19.03,18.1 -4.95,4.25 -14.4,11.76 -21,16.69 -6.6,4.93 -17.4,12.35 -24,16.49 -6.6,4.14 -17.85,10.7 -25,14.58 -7.15,3.88 -21.77,11.77 -32.5,17.53 -10.73,5.76 -24.67,13.74 -31,17.72 -6.33,3.99 -16.9,11.32 -23.5,16.29 -6.6,4.98 -14.47,11.11 -17.49,13.64 -3.02,2.53 -10.85,9.78 -17.4,16.1 -6.55,6.32 -15.98,16.22 -20.96,22 -4.97,5.78 -12.22,14.78 -16.12,20 -3.89,5.22 -9.74,13.78 -12.99,19 -3.25,5.22 -9.8,17.15 -14.56,26.5 -4.77,9.35 -10.99,22.96 -13.82,30.25 -2.84,7.29 -7.14,20.11 -9.57,28.5 -2.42,8.39 -5.55,20.88 -6.94,27.75 -1.39,6.88 -3.35,18.57 -4.34,26 -1.42,10.61 -1.8,20.14 -1.79,44.5 0.02,19.36 0.5,34.38 1.29,40 0.69,4.95 1.96,13.28 2.82,18.5 0.86,5.22 2.88,15.35 4.49,22.5 1.61,7.15 4.77,18.85 7.02,26 2.26,7.15 6.77,19.3 10.03,27 3.26,7.7 9.87,21.65 14.68,31 4.81,9.35 12.64,22.85 17.39,30 4.74,7.15 11.92,17.11 15.94,22.14 4.03,5.03 10.92,13.1 15.32,17.94 4.4,4.83 13.63,13.96 20.5,20.28 6.88,6.33 15.88,14.17 20,17.43 4.13,3.26 13.8,10.13 21.5,15.26 7.7,5.13 21.42,13.14 30.5,17.81 9.08,4.66 20.77,10.29 26,12.52 5.23,2.22 15.35,6.04 22.5,8.5 7.15,2.46 29.42,9.02 49.5,14.58 20.08,5.57 42.58,12.19 50,14.72 7.42,2.53 19.35,7.27 26.5,10.55 7.15,3.27 18.85,9.12 26,13.01 7.15,3.88 17.73,10.21 23.5,14.06 5.77,3.85 14.1,9.71 18.5,13.01 4.4,3.31 11.37,8.98 15.49,12.6 4.12,3.62 11.49,10.41 16.37,15.09 4.89,4.68 13.02,13.22 18.07,19 5.05,5.78 12.14,14.32 15.75,19 3.62,4.68 9.94,13.68 14.06,20 4.11,6.32 11.82,19.49 17.12,29.25 5.3,9.76 13.98,25.74 19.28,35.5 5.29,9.76 12.57,22.47 16.16,28.25 3.6,5.78 10.17,15.63 14.62,21.89 4.44,6.27 11.51,15.49 15.71,20.5 4.2,5.01 15,16.33 24,25.16 9,8.82 20.64,19.35 25.87,23.38 5.23,4.03 14.23,10.51 20,14.38 5.77,3.88 14.33,9.24 19,11.93 4.67,2.68 13.23,7.26 19,10.16 5.77,2.91 16.8,7.8 24.5,10.87 7.7,3.07 19.4,7.22 26,9.22 6.6,2.01 17.4,4.96 24,6.58 6.6,1.61 18.08,3.83 25.5,4.93 7.42,1.1 18.45,2.45 24.5,3 6.05,0.55 17.7497,1 25.9997,1 8.25,-0.01 21.98,-0.45 30.5,-0.99 8.52,-0.54 20.9,-1.9 27.5,-3.02 6.6,-1.13 17.84997,-3.4 24.99999,-5.06 7.15003,-1.65 18.40001,-4.62 25.00001,-6.59 6.6,-1.97 17.17,-5.59 23.5,-8.04 6.33,-2.45 19.15,-8.16 28.5,-12.69 9.35,-4.53 20.6,-10.41 25.0003,-13.07 4.4,-2.66 10.7,-6.64 14,-8.85 3.3,-2.21 12.08,-8.78 19.5,-14.6 7.42,-5.82 17.1,-13.88 21.5,-17.9 4.4,-4.02 12.86,-12.57 18.79,-19 5.93,-6.43 14.06,-15.97 18.07,-21.19 4,-5.22 9.75,-13.1 12.78,-17.5 3.02,-4.4 8.7,-13.4 12.61,-20 3.91,-6.6 9.66,-17.4 12.76,-24 3.1,-6.6 8.05,-18.07 10.99,-25.5 2.95,-7.43 7.6,-21.37 10.34,-31 2.74,-9.62 8.16,-28.97 12.04,-43 3.89,-14.03 8.24,-29.1 9.69,-33.5 1.44,-4.4 4.66,-13.18 7.15,-19.5 2.49,-6.32 7.4,-17.24 10.91,-24.25 3.5,-7.01 9.25,-17.59 12.77,-23.5 3.52,-5.91 9.44,-15.03 13.15,-20.25 3.71,-5.22 10.15,-13.78 14.32,-19 4.17,-5.22 14.12,-16.21 22.11,-24.4 7.99,-8.2 19.02,-18.79 24.52,-23.53 5.5,-4.74 14.28,-11.6 19.5,-15.24 5.22,-3.64 13.33,-9 18,-11.91 4.67,-2.9 12.33,-7.5 17,-10.22 4.67,-2.72 19.53,-10.8 33,-17.96 13.47,-7.16 30.58,-16.68 38,-21.15 7.42,-4.47 16.58,-10.37 20.35,-13.11 3.77,-2.74 11.42,-8.55 17,-12.91 5.58,-4.36 17.37,-15.16 26.21,-24 8.83,-8.84 19.41,-20.12 23.51,-25.07 4.11,-4.95 10.17,-12.82 13.48,-17.5 3.32,-4.68 9.12,-13.45 12.9,-19.5 3.79,-6.05 10.31,-17.97 14.49,-26.5 4.19,-8.53 10.01,-21.57 12.94,-29 2.93,-7.43 7.06,-19.57 9.19,-27 2.12,-7.43 5.21,-20.25 6.86,-28.5 1.65,-8.25 3.77,-20.62 4.71,-27.5 1.29,-9.43 1.71,-19.88 1.73,-42.5 0.01,-26 -0.29,-32.07 -2.25,-45.5 -1.24,-8.53 -3.09,-19.55 -4.11,-24.5 -1.02,-4.95 -2.82,-12.82 -4,-17.5 -1.17,-4.68 -3.75,-13.68 -5.71,-20 -1.96,-6.32 -5.93,-17.35 -8.81,-24.5 -2.88,-7.15 -8.28,-19.07 -11.99,-26.5 -3.71,-7.42 -8.79,-16.87 -11.29,-21 -2.49,-4.12 -6.42,-10.42 -8.73,-14 -2.3,-3.57 -7.74,-11.28 -12.08,-17.12 -4.35,-5.85 -12.4,-15.69 -17.9,-21.89 -5.5,-6.19 -15.17,-15.99 -21.5,-21.77 -6.33,-5.78 -18.25,-15.53 -26.5,-21.67 -8.25,-6.14 -19.05,-13.76 -24,-16.93 -4.95,-3.18 -16.42,-9.49 -25.5,-14.03 -9.08,-4.53 -20.78,-10.08 -26,-12.31 -5.22,-2.23 -15.58,-6.09 -23,-8.57 -7.42,-2.47 -21.15,-6.59 -30.5,-9.15 -9.35,-2.56 -21.28,-5.81 -26.5,-7.21 -5.22,-1.41 -14.9,-4.12 -21.5,-6.04 -6.6,-1.91 -18.53,-5.94 -26.5,-8.94 -7.97,-3.01 -22.38,-9.36 -32,-14.12 -11.13,-5.5 -23.51,-12.69 -34,-19.74 -9.08,-6.1 -20.55,-14.21 -25.5,-18.03 -4.95,-3.81 -17.81,-15.72 -28.57,-26.46 -10.76,-10.73 -22.59,-23.34 -26.28,-28.02 -3.7,-4.67 -10.7,-14.35 -15.56,-21.5 -4.85,-7.15 -11.75,-18.17 -15.33,-24.5 -3.57,-6.32 -13.44,-24.32 -21.94,-40 -8.49,-15.67 -18.58,-33.45 -22.41,-39.5 -3.84,-6.05 -10.8603,-16.17 -15.6103,-22.5 -4.75,-6.32 -14.21,-17.57 -21.02,-25 -6.8,-7.42 -17.3,-17.92 -23.33,-23.33 -6.02,-5.4 -16.8,-14.23 -23.95,-19.61 -7.15,-5.38 -16.15003,-11.78 -20.00001,-14.23 -3.849971,-2.44 -10.83001,-6.52 -15.49999,-9.05 -4.67,-2.53 -13.45,-7.08 -19.5,-10.1 -6.05,-3.03 -15.05,-7.07 -20,-8.98 -4.95,-1.91 -15.3,-5.51 -23,-8 -7.7,-2.49 -21.2,-6.13 -29.9997,-8.09 -8.8,-1.96 -19.83,-4.23 -24.5,-5.05 -4.67,-0.82 -14.58,-1.96 -22,-2.53 -7.42,-0.57 -22.27,-0.97 -33,-0.9 -10.73,0.07 -22.88,0.49 -27,0.94 z"
       fill="#062223"
       id="Cloud9" />
    <path
       d="m 4796.5,1412.54 c -6.05,0.7 -15.5,2.03 -21,2.96 -5.5,0.93 -15.4,2.97 -22,4.53 -6.6,1.56 -18.98,5.17 -27.5,8.03 -8.52,2.85 -20,7.18 -25.5,9.61 -5.5,2.44 -16.3,7.7 -24,11.7 -7.7,4 -19.63,10.84 -26.5,15.19 -6.88,4.35 -16.32,10.82 -21,14.37 -4.68,3.55 -16.38,13.03 -26,21.07 -9.63,8.04 -23.57,19.69 -31,25.89 -7.43,6.2 -17.77,14.35 -23,18.11 -5.23,3.75 -14,9.66 -19.5,13.13 -5.5,3.47 -17.2,9.95 -26,14.4 -8.8,4.45 -22.98,10.85 -31.5,14.23 -8.52,3.38 -20.9,7.69 -27.5,9.59 -6.6,1.9 -18.52,4.82 -26.5,6.5 -7.98,1.67 -19.45,3.85 -25.5,4.85 -9.13,1.49 -16.88,1.79 -45.5,1.77 -29.81,-0.03 -36.81,-0.33 -51.5,-2.26 -9.35,-1.23 -25.55,-3.2 -36,-4.39 -15.45,-1.75 -24.51,-2.15 -48.5,-2.1 -26.29,0.06 -31.3,0.34 -46,2.58 -9.07,1.39 -21.9,3.71 -28.5,5.17 -6.6,1.46 -20.77,5.58 -31.5,9.17 -10.72,3.58 -25.8,9.42 -33.5,12.98 -7.7,3.56 -18.5,8.99 -24,12.06 -5.5,3.07 -14.72,8.74 -20.5,12.6 -5.78,3.87 -14.1,9.76 -18.5,13.11 -4.4,3.34 -12.5,9.97 -18,14.72 -5.5,4.75 -15.64,14.44 -22.53,21.52 -6.89,7.08 -15.93,17.15 -20.09,22.37 -4.15,5.22 -10.5,13.78 -14.09,19 -3.59,5.22 -8.76,13.1 -11.5,17.5 -2.74,4.4 -7.68,12.95 -10.99,19 -3.3,6.05 -8.61,16.85 -11.78,24 -3.18,7.15 -8,19.3 -10.71,27 -2.71,7.7 -6.46,20.08 -8.32,27.5 -1.87,7.42 -4.28,18 -5.36,23.5 -1.08,5.5 -2.57,13.83 -3.3,18.5 -0.93,5.98 -1.32,19.49 -1.3,45.5 0.02,36.18 0.09,37.34 2.84,52.5 1.55,8.53 4.52,22.25 6.61,30.5 2.09,8.25 6.15,21.3 9.04,29 2.88,7.7 7.81,19.63 10.94,26.5 3.14,6.88 8.4,17.45 11.7,23.5 3.3,6.05 9.75,16.63 14.33,23.5 4.58,6.88 10.37,15.2 12.85,18.5 2.49,3.3 7.52,9.6 11.18,14 3.66,4.4 13.85,16.55 22.63,27 8.79,10.45 19.55,23.72 23.91,29.48 4.37,5.76 11.54,15.9 15.94,22.53 4.4,6.62 12.59,21.25 18.2,32.51 5.6,11.27 12.42,26.55 15.15,33.98 2.73,7.43 6.82,20.25 9.08,28.5 2.27,8.25 4.99,19.28 6.05,24.5 1.05,5.22 2.73,14.68 3.71,21 1.49,9.49 1.8,17.8 1.81,47.5 0,23.34 -0.45,39.69 -1.29,46.5 -0.71,5.78 -2.5,19.95 -3.98,31.5 -2.45,19.09 -2.7,24.05 -2.71,54.5 -0.01,22.65 0.42,36.58 1.33,43 0.73,5.22 2.43,15.13 3.78,22 1.34,6.88 3.75,17.68 5.35,24 1.6,6.32 4.77,16.9 7.05,23.5 2.28,6.6 7.16,18.75 10.85,27 3.68,8.25 10.13,21.07 14.31,28.5 4.19,7.43 11.48,18.9 16.21,25.5 4.73,6.6 11.63,15.82 15.33,20.5 3.71,4.68 12.59,14.52 19.75,21.87 7.16,7.36 17.52,17.26 23.02,22.01 5.5,4.75 14.27,11.84 19.5,15.76 5.23,3.92 15.35,10.87 22.5,15.46 7.15,4.58 20.2,11.96 29,16.41 8.8,4.45 22.98,10.83 31.5,14.2 8.52,3.36 20.9,7.77 27.5,9.81 6.6,2.04 19.43,5.23 28.5,7.09 9.07,1.87 21.45,4.1 27.5,4.97 6.41,0.92 21.65,1.8 36.5,2.11 14.81,0.31 29.9,0.09 36,-0.52 5.77,-0.58 16.8,-2.01 24.5,-3.19 7.7,-1.18 20.86,-3.9 29.25,-6.06 8.39,-2.16 20.99,-5.99 28,-8.53 7.01,-2.53 18.82,-7.29 26.25,-10.56 7.43,-3.27 18.9,-8.92 25.5,-12.55 6.6,-3.64 17.4,-10.19 24,-14.57 6.6,-4.37 15.82,-10.9 20.5,-14.49 4.68,-3.6 16.32,-13.11 25.87,-21.13 9.56,-8.03 21.04,-17.67 25.5,-21.42 4.47,-3.76 11.73,-9.66 16.13,-13.1 4.4,-3.45 12.73,-9.42 18.5,-13.27 5.77,-3.85 17.02,-10.63 25,-15.06 7.98,-4.44 20.8,-10.86 28.5,-14.27 7.7,-3.41 21.2,-8.6 30,-11.53 8.8,-2.93 22.98,-6.9 31.5,-8.82 8.52,-1.91 22.02,-4.53 30,-5.8 13.04,-2.09 17.72,-2.31 46.5,-2.27 29.55,0.05 33.99,0.29 58,3.2 14.3,1.73 31.18,3.74 37.5,4.45 7.19,0.81 22.75,1.26 41.5,1.2 25.55,-0.09 32.15,-0.43 44.5,-2.32 7.98,-1.21 20.8,-3.58 28.5,-5.25 7.7,-1.68 20.52,-5.18 28.5,-7.79 7.98,-2.61 20.13,-7.11 27,-10 6.88,-2.9 16.55,-7.3 21.5,-9.78 4.95,-2.49 13.5,-7.22 19,-10.53 5.5,-3.3 14.5,-9.02 20,-12.72 5.5,-3.69 14.73,-10.45 20.5,-15.03 5.77,-4.57 17.96,-15.78 27.07,-24.9 9.12,-9.12 20.86,-21.98 26.1,-28.58 5.24,-6.6 12.91,-16.95 17.06,-23 4.14,-6.05 10.45,-16.18 14.02,-22.5 3.57,-6.32 8.3,-15.1 10.51,-19.5 2.21,-4.4 6.47,-13.85 9.48,-21 3,-7.15 7.31,-18.62 9.58,-25.5 2.27,-6.87 5.44,-17.68 7.05,-24 1.61,-6.32 4.09,-18.03 5.51,-26 1.43,-7.97 3.05,-18.55 3.6,-23.5 0.55,-4.95 1,-19.8 1,-33 0,-13.2 -0.47,-29.4 -1.04,-36 -0.58,-6.6 -2.36,-18.75 -3.97,-27 -1.61,-8.25 -4.74,-21.41 -6.95,-29.25 -2.21,-7.84 -5.87,-19.31 -8.14,-25.5 -2.27,-6.19 -6.43,-16.2 -9.25,-22.25 -2.82,-6.05 -7.99,-16.4 -11.49,-23 -3.5,-6.6 -9.1,-16.28 -12.45,-21.5 -3.34,-5.22 -9.09,-13.55 -12.76,-18.5 -3.67,-4.95 -17.59,-22.05 -30.92,-38 -13.33,-15.95 -27.98,-33.95 -32.56,-40 -4.58,-6.05 -11.28,-15.72 -14.89,-21.5 -3.62,-5.78 -10.57,-18.37 -15.46,-28 -4.88,-9.62 -10.92,-22.67 -13.43,-29 -2.5,-6.33 -6.64,-18.25 -9.19,-26.5 -2.56,-8.25 -5.95,-20.62 -7.54,-27.5 -1.59,-6.87 -3.87,-19.7 -5.07,-28.5 -1.82,-13.33 -2.19,-20.75 -2.19,-44.5 0,-20.37 0.47,-32.35 1.64,-42 0.91,-7.42 2.83,-23.4 4.27,-35.5 1.99,-16.83 2.73,-28.7 3.14,-50.5 0.42,-22.87 0.19,-31.46 -1.17,-43.5 -0.93,-8.25 -3.05,-21.75 -4.71,-30 -1.66,-8.25 -4.98,-21.75 -7.38,-30 -2.4,-8.25 -6.58,-20.62 -9.28,-27.5 -2.71,-6.87 -7.42,-17.67 -10.48,-24 -3.05,-6.33 -9.3,-17.69 -13.88,-25.25 -4.58,-7.57 -11.12,-17.69 -14.54,-22.5 -3.41,-4.81 -9.23,-12.58 -12.94,-17.25 -3.7,-4.67 -14.18,-15.95 -23.29,-25.07 -9.11,-9.11 -21.29,-20.4 -27.06,-25.1 -5.77,-4.69 -16.8,-12.8 -24.5,-18.03 -7.7,-5.22 -19.85,-12.79 -27,-16.81 -7.15,-4.03 -17.27,-9.31 -22.5,-11.74 -5.23,-2.43 -13.1,-5.89 -17.5,-7.69 -4.4,-1.8 -11.15,-4.43 -15,-5.85 -3.85,-1.42 -10.15,-3.49 -14,-4.61 -3.85,-1.11 -13.3,-3.59 -21,-5.5 -7.7,-1.91 -19.85,-4.43 -27,-5.59 -7.15,-1.16 -18.85,-2.53 -26,-3.03 -7.15,-0.5 -21.77,-0.87 -32.5,-0.81 -10.73,0.05 -24.45,0.66 -30.5,1.37 z"
       fill="#062223"
       id="Cloud8" />
    <path
       d="m 171.74,1965.06 c -7.01,0.49 -19.84,1.59 -28.5,2.42 -8.65,0.84 -23.84,2.9 -33.74,4.58 -9.8999,1.67 -23.8499,4.35 -30.9999,5.95 -7.15,1.6 -19.52,4.75 -27.5,7 -7.98,2.26 -21.93,6.6 -31,9.65 -9.07,3.06 -24.14996,8.91 -33.5,13.02 -9.35,4.11 -22.18,10.22 -28.5,13.57 -6.32,3.36 -17.24,9.63 -24.25,13.93 -7.01,4.3 -17.36,11.15 -23,15.23 -5.64,4.07 -14.7501,11.15 -20.2501,15.74 -5.5,4.58 -15.4,13.74 -22,20.35 -6.6,6.61 -15.26,15.72 -19.25,20.26 -3.99,4.53 -10.34,12.4 -14.11,17.49 -3.77,5.09 -10.11,14.2 -14.09,20.25 -3.98,6.05 -9.75,15.5 -12.83,21 -3.08,5.5 -8.61,16.53 -12.29,24.5 -3.68,7.97 -8.73,20.13 -11.23,27 -2.49,6.88 -6.36,18.8 -8.59,26.5 -2.23,7.7 -5.21,19.63 -6.62,26.5 -1.41,6.88 -3.44,18.35 -4.51,25.5 -1.06,7.15 -2.39,18.18 -2.95,24.5 -0.56,6.32 -1.02,24.32 -1.03,40 -0.01,18.12 0.54,34.15 1.51,44 0.83,8.53 2.44,22.03 3.58,30 1.13,7.97 3.39,21.25 5.03,29.5 1.63,8.25 4.31,20.4 5.96,27 1.65,6.6 5.2,19.65 7.9,29 2.69,9.35 7.58,24.65 10.86,34 3.29,9.35 7.54,20.82 9.47,25.5 1.92,4.68 6.01,14.46 9.09,21.75 3.08,7.29 10.01,22.36 15.41,33.5 5.4,11.14 13.77,27.68 18.62,36.75 4.85,9.07 13.53,24.38 19.31,34 5.78,9.63 15.68,25.38 22.01,35 6.33,9.63 16.5001,24.47 22.6001,33 6.1,8.53 16.47,22.47 23.04,31 6.57,8.53 18.31,23.15 26.08,32.5 7.77,9.35 19.92,23.53 27.01,31.5 7.09003,7.97 24.62,26.36 38.95,40.86 14.34,14.5 31.93,31.82 39.09,38.5 7.15,6.68 22.2301,20.03 33.4999,29.67 11.26,9.64 25.21,21.39 30.98,26.1 5.77,4.72 13.87,11.25 18,14.53 4.12,3.27 16.73,12.71 28,20.96 11.27,8.26 28.15,20.19 37.5,26.52 9.35,6.33 22.17,14.83 28.5,18.88 6.32,4.06 15.1,9.61 19.5,12.33 4.4,2.73 12.5,7.64 18,10.91 5.5,3.28 18.1,10.57 28,16.21 9.9,5.64 27.67,15.22 39.5,21.28 11.83,6.07 30.05,15.08 40.5,20.02 10.45,4.94 21.92,10.32 25.5,11.94 3.58,1.63 13.7,5.93 22.5,9.56 8.8,3.63 24.1,9.74 34,13.57 9.9,3.83 30.83,11.26 46.5,16.51 15.67,5.26 36.83,11.81 47,14.56 10.17,2.75 26.15,6.84 35.5,9.09 9.35,2.25 28.02,6.29 41.5,8.97 13.48,2.68 33.05,6.03 43.5,7.44 10.45,1.42 27.55,3.48 38,4.58 10.45,1.11 27.55,2.46 38,3 10.45,0.55 26.87,1 36.5,1 9.62,0 27.17,-0.45 39,-1 11.83,-0.55 26,-1.46 31.5,-2.02 5.5,-0.57 14.95,-1.72 21,-2.58 6.05,-0.85 20.22,-3.32 31.5,-5.48 11.28,-2.16 27.25,-5.71 35.5,-7.87 8.25,-2.17 21.53,-6.03 29.5,-8.59 7.97,-2.55 21.59,-7.53 30.25,-11.05 8.66,-3.52 22.61,-9.83 31,-14.03 8.39,-4.19 20.87,-11 27.75,-15.13 6.87,-4.12 17.45,-10.89 23.5,-15.02 6.05,-4.14 16.17,-11.84 22.5,-17.11 6.33,-5.27 16.62,-14.53 22.89,-20.59 6.26,-6.06 16.34,-16.87 22.41,-24.02 6.06,-7.15 12.69,-15.25 14.72,-18 2.03,-2.75 6.82,-9.72 10.66,-15.5 3.83,-5.78 9.92,-15.68 13.52,-22 3.61,-6.32 8.13,-14.65 10.04,-18.5 1.92,-3.85 6.2,-13.75 9.52,-22 3.31,-8.25 7.84,-20.62 10.06,-27.5 2.22,-6.87 5.16,-17 6.54,-22.5 1.38,-5.5 3.67,-16.07 5.07,-23.5 1.41,-7.43 3.23,-18.68 4.05,-25 0.82,-6.32 2.03,-22.53 2.69,-36 1.03,-21.23 0.96,-27.91 -0.52,-50 -0.94,-14.03 -2.8,-33.15 -4.14,-42.5 -1.33,-9.35 -3.8,-23.75 -5.48,-32 -1.69,-8.25 -5.5,-24.45 -8.47,-36 -2.98,-11.55 -8.53,-30.45 -12.35,-42 -3.81,-11.55 -9.98,-28.65 -13.7,-38 -3.72,-9.35 -9.35,-22.85 -12.51,-30 -3.16,-7.15 -10.92,-23.35 -17.25,-36 -6.33,-12.65 -14.19,-27.95 -17.47,-34 -3.28,-6.05 -10.91,-19.1 -16.96,-29 -6.06,-9.9 -14.9,-23.96 -19.66,-31.25 -4.76,-7.29 -13.24,-19.66 -18.83,-27.5 -5.59,-7.84 -14.9,-20.55 -20.68,-28.25 -5.77,-7.7 -14.81,-19.4 -20.07,-26 -5.26,-6.6 -17.66,-21.45 -27.57,-33 -9.91,-11.55 -25.66,-28.84 -35.01,-38.42 -9.35,-9.59 -26.67,-26.86 -38.5,-38.38 -11.83,-11.53 -30.05,-28.46 -40.5,-37.61 -10.45,-9.16 -23.95,-20.71 -30,-25.68 -6.05,-4.97 -15.5,-12.65 -21,-17.06 -5.5,-4.42 -17.88,-13.87 -27.5,-21.02 -9.63,-7.14 -22.45,-16.53 -28.5,-20.87 -6.05,-4.34 -21.35,-14.69 -34,-22.99 -12.65,-8.31 -29.3,-18.94 -37,-23.62 -7.7,-4.67 -19.4,-11.67 -26,-15.54 -6.6,-3.88 -18.98,-10.88 -27.5,-15.57 -8.52,-4.69 -24.27,-12.99 -35,-18.43 -10.73,-5.45 -29.17,-14.34 -41,-19.75 -11.83,-5.42 -27.58,-12.42 -35,-15.57 -7.42,-3.15 -20.48,-8.44 -29,-11.75 -8.52,-3.32 -23.15,-8.73 -32.5,-12.04 -9.35,-3.31 -27.8,-9.39 -41,-13.52 -13.2,-4.13 -33,-9.84 -44,-12.7 -11,-2.86 -26.08,-6.52 -33.5,-8.14 -7.42,-1.61 -19.8,-4.24 -27.5,-5.82 -7.7,-1.59 -24.35,-4.49 -37,-6.44 -12.65,-1.96 -27.5,-4.03 -33,-4.6 -5.5,-0.58 -18.1,-1.74 -28,-2.57 -10.07,-0.85 -33.87,-1.68 -54,-1.89 -19.8,-0.2 -41.74,0.04 -48.76,0.54 z"
       fill="#80d4d5"
       id="Cloud6" />
    <path
       d="m 1362,-1683.33 c -2.47,0.18 -9,0.8 -14.5,1.38 -5.5,0.58 -15.4,1.94 -22,3.03 -6.6,1.08 -17.17,3.11 -23.5,4.5 -6.33,1.4 -17.13,4.1 -24,6.01 -6.88,1.92 -17.45,5.1 -23.5,7.09 -6.05,1.98 -14.38,4.91 -18.5,6.51 -4.13,1.61 -11.33,4.53 -16,6.5 -4.67,1.97 -14.35,6.36 -21.5,9.75 -7.15,3.39 -18.85,9.48 -26,13.52 -7.15,4.05 -16.83,9.82 -21.5,12.83 -4.67,3.01 -14.35,9.65 -21.5,14.77 -7.15,5.11 -17.95,13.41 -24,18.43 -6.05,5.02 -18.17,15.97 -26.93,24.32 -8.77,8.36 -20.85,20.59 -26.86,27.19 -6,6.6 -14.85,17.17 -19.66,23.5 -4.82,6.32 -13.48,18.47 -19.25,27 -5.77,8.53 -13.69,21.12 -17.59,28 -3.91,6.87 -10.46,19.47 -14.57,28 -4.1,8.53 -9.59,20.9 -12.18,27.5 -2.6,6.6 -6.48,17.17 -8.61,23.5 -2.14,6.32 -5.43,17.12 -7.31,24 -1.88,6.87 -4.55,17.9 -5.92,24.5 -1.37,6.6 -3.4,17.4 -4.5,24 -1.1,6.6 -2.59,17.4 -3.31,24 -0.83,7.6 -1.29,24.27 -1.25,45.5 0.04,25.05 0.49,37.03 1.76,47.5 0.93,7.7 2.86,20.97 4.28,29.5 1.42,8.53 4.54,23.37 6.92,33 2.38,9.62 8.66,32.57 13.95,51 5.3,18.42 11.83,42.28 14.52,53 2.69,10.72 5.81,24.9 6.93,31.5 1.13,6.6 2.75,18.3 3.61,26 0.86,7.7 1.97,23.45 2.46,35 0.57,13.13 0.54,28.12 -0.08,40 -0.54,10.45 -1.86,25.86 -2.94,34.25 -1.09,8.39 -3.12,21.21 -4.52,28.5 -1.4,7.29 -4.35,20.22 -6.55,28.75 -2.21,8.52 -6.41,22.7 -9.35,31.5 -2.94,8.8 -8.14,22.52 -11.55,30.5 -3.41,7.97 -9.96,21.92 -14.56,31 -4.6,9.07 -15.85,29.1 -25,44.5 -9.15,15.4 -20.67,34.97 -25.59,43.5 -4.92,8.53 -12.92,23.6 -17.77,33.5 -4.85,9.9 -11.1,23.62 -13.88,30.5 -2.78,6.87 -7.31,19.25 -10.07,27.5 -2.76,8.25 -6.82,21.97 -9.03,30.5 -2.21,8.53 -5.16,21.35 -6.57,28.5 -1.41,7.15 -3.21,18.17 -4.01,24.5 -0.79,6.32 -2,22.75 -2.67,36.5 -0.95,19.51 -0.96,29.39 -0.03,45 0.66,11 2.34,27.87 3.74,37.5 1.4,9.62 3.86,23.8 5.47,31.5 1.6,7.7 4.7,20.07 6.88,27.5 2.18,7.42 5.6,18.45 7.6,24.5 2,6.05 5.91,16.62 8.69,23.5 2.78,6.87 9.24,21.05 14.35,31.5 5.11,10.45 12.39,24.17 16.16,30.5 3.78,6.32 11.43,18.25 17.01,26.5 5.57,8.25 14.81,20.8501 20.52,28.0001 5.71,7.15 15.13,18.1701 20.93,24.5 5.8,6.32 15,15.7801 20.44,21.02 5.44,5.23 14.39,13.38 19.89,18.1 5.5,4.73 14.27,11.9301 19.5,16 5.23,4.07997 18.5,13.45009 29.5,20.84011 13.82,9.27999 26.18,16.55989 40,23.55989 11,5.57 25.62,12.5 32.5,15.38 6.87,2.8901 21.05,8.1301 31.5,11.6501 10.45,3.51 24.17,7.7099 30.5,9.3299 6.33,1.62 19.37,4.31 29,5.98 9.62,1.66 22.9,3.79 29.5,4.73 9.56,1.36 19.82,1.73 50.5,1.78 36.91,0.07 39.29,-0.0399 57.5,-2.6699 10.45,-1.51 24.62,-3.9 31.5,-5.3101 6.87,-1.41 19.47,-4.3601 28,-6.55 8.53,-2.2 30.35,-8.2 48.5,-13.35 18.15,-5.14 38.4,-10.6999 45,-12.35 6.6,-1.66 17.17,-4.1499 23.5,-5.5499 6.33,-1.4 16,-3.1999 21.5,-4 5.5,-0.8 18.33,-2.22 28.5,-3.15 14.82,-1.36 24.96,-1.58 51,-1.14 29.41,0.5 34.4,0.8399 52.5,3.5899 11,1.6601 25.85,4.2 33,5.63 7.15,1.4301 20.65,4.8101 30,7.5101 9.35,2.6999 23.08,7.0899 30.5,9.77 7.42,2.67 18,6.8199 23.5,9.2199 5.5,2.4001 16.97,7.9201 25.5,12.2701 8.53,4.3499 18.65,9.7299 22.5,11.9499 3.85,2.23 14.42,8.4301 23.5,13.7799 9.08,5.35 25.05,14.81 35.5,21.01 10.45,6.2 26.65,15.17 36,19.94 9.35,4.77 22.85,11.07 30,14.01 7.15,2.94 19.08,7.56 26.5,10.28 7.42,2.72 19.58,6.69 27,8.81 7.42,2.13 19.8,5.2 27.5,6.83 7.7,1.62 18.05,3.65 23,4.5 4.95,0.86 14.4,2.32 21,3.24 9.36,1.32 20.13,1.7 49,1.77 31.13,0.08 38.98,-0.2 49.5,-1.76 6.87,-1.01 20.6,-3.17 30.5,-4.78 9.9,-1.62 21.6,-3.86 26,-4.98 4.4,-1.13 13.18,-3.61 19.5,-5.53 6.32,-1.91 17.35,-5.5 24.5,-7.96 7.15,-2.47 19.07,-7.01 26.5,-10.09 7.43,-3.08 17.55,-7.62 22.5,-10.09 4.95,-2.47 15.07,-7.86 22.5,-11.98 7.43,-4.12 18.45,-10.64 24.5,-14.48 6.05,-3.84 15.5,-10.17 21,-14.07 5.5,-3.89 15.62,-11.5998 22.49,-17.1298 6.87,-5.53 17.9,-15.0601 24.5,-21.1701 6.61,-6.1099 16.07,-15.3299 21.04,-20.5 4.96,-5.16 13.32,-14.57 18.57,-20.89 5.24,-6.3299 12.48,-15.3299 16.07,-19.99998 3.59,-4.68005 9.67,-13.21997 13.52,-19.00002 3.85,-5.78 9.47,-14.55 12.49,-19.5 3.01,-4.9499 6.76,-11.25 8.33,-14 1.57,-2.75 6.32,-11.9699 10.55,-20.5 4.24,-8.53 9.27,-19.3299 11.19,-24 1.92,-4.68 5.55,-14.1301 8.07,-21.0001 2.52,-6.88 6.2,-17.9 8.18,-24.5 1.98,-6.6 4.69,-16.28 6.01,-21.5 1.32,-5.22 3.51,-15.8 4.86,-23.5 1.35,-7.7 3.28,-20.3 4.29,-28 1.52,-11.61 1.83,-20.83 1.8,-54 -0.03,-32.7 -0.36,-42.46 -1.83,-53.5 -0.99,-7.43 -2.9,-19.58 -4.25,-27 -1.35,-7.43 -4.87,-22.95 -7.82,-34.5 -2.96,-11.55 -9.72,-36.3 -15.04,-55 -5.32,-18.7 -11.22,-40.3 -13.1,-48 -1.89,-7.7 -4.58,-20.97 -5.99,-29.5 -1.4,-8.53 -3.19,-21.58 -3.97,-29 -0.78,-7.43 -1.71,-23.18 -2.06,-35 -0.38,-12.72 -0.16,-29.26 0.52,-40.5 0.63,-10.45 1.83,-24.18 2.67,-30.5 0.83,-6.33 2.64,-17.58 4.01,-25 1.38,-7.43 4.02,-19.58 5.87,-27 1.86,-7.43 5.4,-19.8 7.87,-27.5 2.47,-7.7 6.17,-18.5 8.23,-24 2.05,-5.5 6.83,-16.98 10.62,-25.5 3.79,-8.53 10.43,-22.03 14.75,-30 4.33,-7.98 15.93,-28 25.79,-44.5 9.86,-16.5 21.71,-36.75 26.33,-45 4.63,-8.25 11.64,-21.98 15.58,-30.5 3.94,-8.53 8.62,-19.1 10.39,-23.5 1.77,-4.4 5.66,-15.2 8.64,-24 2.99,-8.8 6.5,-19.83 7.82,-24.5 1.31,-4.68 3.55,-13.68 4.98,-20 1.43,-6.33 3.91,-19.38 5.5,-29 1.59,-9.63 3.43,-24.47 4.09,-33 0.77,-9.99 1,-27.05 0.65,-48 -0.43,-26.06 -0.96,-35.28 -2.66,-46.5 -1.17,-7.7 -3.48,-20.75 -5.13,-29 -1.64,-8.25 -4.37,-20.18 -6.05,-26.5 -1.68,-6.33 -4.64,-16.45 -6.58,-22.5 -1.94,-6.05 -5.99,-17.53 -9.01,-25.5 -3.01,-7.97 -7.83,-19.68 -10.69,-26 -2.87,-6.33 -8.95,-18.47 -13.52,-27 -4.58,-8.53 -12.5,-22.03 -17.61,-30 -5.1,-7.97 -12.37,-18.78 -16.15,-24 -3.77,-5.22 -11.31,-15.13 -16.74,-22 -5.72,-7.23 -19.2,-21.78 -31.98,-34.51 -13.24,-13.19 -27.9,-26.63 -36.59,-33.56 -7.97,-6.36 -19,-14.75 -24.5,-18.65 -5.5,-3.9 -17.2,-11.48 -26,-16.84 -8.8,-5.37 -23.88,-13.64 -33.5,-18.39 -9.63,-4.74 -21.55,-10.33 -26.5,-12.41 -4.95,-2.08 -17.55,-6.7 -28,-10.26 -10.45,-3.57 -23.95,-7.77 -30,-9.33 -6.05,-1.57 -15.28,-3.75 -20.5,-4.85 -5.22,-1.11 -11.97,-2.5 -15,-3.1 -3.03,-0.6 -12.93,-2.09 -22,-3.3 -14.29,-1.92 -21.18,-2.22 -51.5,-2.26 -21.94,-0.02 -39.66,0.44 -47.5,1.26 -6.88,0.71 -18.35,2.15 -25.5,3.2 -7.15,1.04 -20.43,3.49 -29.5,5.45 -9.07,1.96 -22.8,5.29 -30.5,7.41 -7.7,2.12 -27.5,7.74 -44,12.5 -16.5,4.76 -36.75,10.21 -45,12.12 -8.25,1.91 -21.53,4.62 -29.5,6.02 -7.97,1.41 -20.8,3.21 -28.5,3.99 -7.7,0.79 -23.22,1.74 -34.5,2.11 -12.66,0.41 -27.96,0.21 -40,-0.54 -10.72,-0.66 -26.25,-2.09 -34.5,-3.18 -8.25,-1.09 -20.85,-3.11 -28,-4.48 -7.15,-1.38 -20.65,-4.56 -30,-7.07 -9.35,-2.52 -22.17,-6.35 -28.5,-8.51 -6.33,-2.17 -16.67,-5.99 -23,-8.48 -6.33,-2.5 -13.08,-5.24 -15,-6.09 -1.92,-0.85 -10.92,-5.23 -20,-9.74 -9.08,-4.5 -20.33,-10.34 -25,-12.97 -4.67,-2.63 -20.2,-11.76 -34.5,-20.29 -14.3,-8.53 -29.6,-17.66 -34,-20.3 -4.4,-2.63 -16.55,-9.01 -27,-14.16 -10.45,-5.16 -22.6,-10.89 -27,-12.73 -4.4,-1.84 -15.2,-6 -24,-9.25 -8.8,-3.24 -21.4,-7.47 -28,-9.39 -6.6,-1.92 -17.85,-4.8 -25,-6.4 -7.15,-1.6 -16.6,-3.61 -21,-4.48 -4.4,-0.86 -12.5,-2.25 -18,-3.09 -5.5,-0.83 -16.75,-1.94 -25,-2.46 -8.25,-0.51 -26.03,-0.87 -39.5,-0.79 -13.47,0.08 -26.53,0.29 -29,0.47 z"
       fill="#80d4d5"
       id="Cloud7" />
    <path
       d="m 3872.5,1892.64 c -2.75,0.22 -10.18,1.09 -16.5,1.93 -6.32,0.84 -18.14,2.85 -26.25,4.48 -8.11,1.62 -19.59,4.09 -25.5,5.49 -5.91,1.39 -13.45,3.24 -16.75,4.11 -3.3,0.86 -14.1,4.49 -24,8.06 -9.9,3.57 -22.95,8.57 -29,11.1 -6.05,2.54 -18.43,8.29 -27.5,12.77 -9.07,4.48 -37.2,20.63 -62.5,35.88 -32.04,19.31 -52.45,30.88 -67.25,38.13 -11.69,5.73 -24.74,11.81 -29,13.53 -4.26,1.72 -12.25,4.67 -17.75,6.56 -5.5,1.89 -16.97,5.61 -25.5,8.26 -8.53,2.66 -20.68,5.99 -27,7.42 -6.32,1.42 -16.9,3.48 -23.5,4.58 -6.6,1.1 -17.4,2.7 -24,3.56 -6.6,0.87 -19.43,2.06 -28.5,2.65 -9.4,0.61 -27.04,0.82 -41,0.49 -15.09,-0.37 -30.26,-1.35 -39.5,-2.56 -8.25,-1.07 -18.15,-2.44 -22,-3.04 -3.85,-0.6 -12.4,-2.26 -19,-3.68 -6.6,-1.42 -19.65,-4.58 -29,-7.01 -9.35,-2.44 -21.05,-5.51 -26,-6.82 -4.95,-1.31 -20.03,-5.35 -33.5,-8.99 -13.47,-3.64 -29.22,-7.7 -35,-9.01 -5.78,-1.32 -14.78,-3.1 -20,-3.96 -5.22,-0.86 -17.15,-2.56 -26.5,-3.77 -14.63,-1.89 -21.74,-2.2 -51,-2.2 -20.31,0 -39.03,0.52 -46.5,1.28 -6.88,0.7 -19.25,2.38 -27.5,3.74 -8.25,1.35 -18.82,3.35 -23.5,4.42 -4.68,1.08 -12.78,3.13 -18,4.56 -5.22,1.43 -12.2,3.41 -15.5,4.41 -3.3,1 -12.3,4.05 -20,6.78 -7.7,2.74 -18.05,6.79 -23,9 -4.95,2.22 -13.95,6.36 -20,9.22 -6.05,2.85 -15.95,7.92 -22,11.26 -6.05,3.33 -17.07,9.93 -24.5,14.66 -7.43,4.73 -18.9,12.61 -25.5,17.5 -6.6,4.9 -17.16,13.22 -23.46,18.49 -6.31,5.27 -19.19,17.23 -28.63,26.58 -9.43,9.35 -20.65,21.05 -24.92,26 -4.26,4.95 -12.98,15.97 -19.36,24.5 -6.37,8.52 -15.46,21.57 -20.2,29 -4.73,7.43 -11.32,18.22 -14.64,24 -3.32,5.77 -8.3,15 -11.05,20.5 -2.76,5.5 -7.39,15.62 -10.28,22.5 -2.9,6.87 -7.24,17.9 -9.66,24.5 -2.41,6.6 -6.57,19.2 -9.24,28 -2.68,8.8 -6.07,21.4 -7.55,28 -1.48,6.6 -3.74,17.85 -5.03,25 -1.29,7.15 -3.12,19.75 -4.08,28 -1.3,11.12 -1.75,22.89 -1.76,45.5 0,16.99 0.54,35.82 1.23,42.5 0.67,6.6 2.12,17.62 3.21,24.5 1.09,6.87 3.58,19.7 5.54,28.5 1.96,8.8 5.52,22.75 7.92,31 2.4,8.25 6.44,20.62 8.98,27.5 2.54,6.87 6.9,17.68 9.69,24 2.78,6.32 9,19.37 13.81,29 4.81,9.62 16.52,30.32 26.02,46 9.49,15.68 21.31,35.25 26.26,43.5 4.94,8.25 12.9,22.65 17.67,32 4.78,9.35 11.44,23.52 14.8,31.5 3.37,7.97 8.66,22.15 11.77,31.5 3.11,9.35 7.62,25.1 10.02,35 2.4,9.9 5.27,23.18 6.38,29.5 1.11,6.32 2.68,16.68 3.49,23 0.81,6.32 2.01,20.5 2.65,31.5 0.67,11.42 0.91,28.15 0.56,39 -0.34,10.45 -1.1,23.95 -1.7,30 -0.59,6.05 -2.14,17.75 -3.45,26 -1.31,8.25 -3.54,20.4 -4.96,27 -1.42,6.6 -3.95,17.18 -5.62,23.5 -1.67,6.32 -7.03,25.9 -11.91,43.5 -4.88,17.6 -10,36.95 -11.38,43 -1.37,6.05 -3.39,15.72 -4.49,21.5 -1.1,5.77 -2.68,14.77 -3.5,20 -0.82,5.22 -2.26,16.47 -3.2,25 -1.43,12.98 -1.62,21.35 -1.13,51.5 0.48,29.38 0.98,38.57 2.71,50 1.16,7.7 3.46,20.52 5.1,28.5 1.64,7.97 5.03,21.93 7.53,31 2.51,9.07 6.59,22.12 9.07,29 2.49,6.87 7.21,18.8 10.5,26.5 3.3,7.7 9.98,21.87 14.85,31.5 4.88,9.62 12.98,24.02 18.01,32 5.02,7.97 13.69,20.57 19.27,28 5.57,7.43 14.6,18.9 20.06,25.5 5.46,6.6 16.5,18.52 24.54,26.5 8.03,7.97 19.54,18.77 25.58,24 6.04,5.22 14.81,12.47 19.48,16.1 4.68,3.63 14.35,10.64 21.5,15.58 7.15,4.93 19.3,12.72 27,17.3 7.7,4.58 22.1,12.43 32,17.45 9.9,5.02 24.07,11.53 31.5,14.48 7.43,2.94 21.38,7.96 31,11.16 9.63,3.19 24.25,7.45 32.5,9.46 8.25,2.02 24.45,5.2 36,7.07 13.63,2.21 28.02,3.8 41,4.53 11.22,0.63 29.87,0.87 42.5,0.53 12.38,-0.32 27,-1.06 32.5,-1.64 5.5,-0.58 15.85,-1.97 23,-3.09 7.15,-1.12 19.75,-3.61 28,-5.53 8.25,-1.92 19.72,-4.86 25.5,-6.51 5.78,-1.66 15.45,-4.75 21.5,-6.87 6.05,-2.12 13.93,-4.98 17.5,-6.34 3.57,-1.37 12.35,-5.03 19.5,-8.14 7.15,-3.12 19.53,-9.09 27.5,-13.27 7.97,-4.18 25.07,-13.98 38,-21.76 12.93,-7.79 28.9,-17.45 35.5,-21.47 6.6,-4.02 15.82,-9.55 20.5,-12.3 4.68,-2.74 15.7,-8.72 24.5,-13.29 8.8,-4.57 22.53,-11 30.5,-14.31 7.97,-3.3 21.93,-8.53 31,-11.62 9.07,-3.08 21.45,-6.93 27.5,-8.53 6.05,-1.61 16.4,-4.05 23,-5.41 6.6,-1.37 16.05,-3.16 21,-3.98 4.95,-0.82 14.85,-2.18 22,-3.03 7.15,-0.84 21.32,-2.03 31.5,-2.64 10.18,-0.6 25.03,-0.82 33,-0.47 7.97,0.35 22.38,1.3 32,2.11 9.63,0.82 23.8,2.59 31.5,3.94 7.7,1.35 23.22,4.73 34.5,7.52 11.28,2.79 34.22,8.82 51,13.41 16.78,4.59 36.8,9.94 44.5,11.9 7.7,1.95 18.95,4.47 25,5.6 6.05,1.12 17.97,2.93 26.5,4.02 8.53,1.08 21.57,2.44 29,3.01 7.43,0.57 22.28,1.03 33,1.03 12.08,-0.01 26.92,-0.76 39,-1.98 10.72,-1.08 23.77,-2.67 29,-3.52 5.23,-0.86 14.9,-2.68 21.5,-4.05 6.6,-1.37 17.63,-4.04 24.5,-5.93 6.88,-1.9 18.57,-5.52 26,-8.06 7.43,-2.54 19.13,-6.89 26,-9.67 6.88,-2.77 20.15,-8.77 29.5,-13.33 9.35,-4.55 24.43,-12.94 33.51,-18.62 9.08,-5.69 21.46,-13.81 27.5,-18.05 6.05,-4.24 15.26,-11.14 20.49,-15.33 5.23,-4.19 15.35,-12.91 22.5,-19.38 7.15,-6.47 18.86,-18.02 26.02,-25.67 7.17,-7.65 17.07,-18.79 22,-24.75 4.94,-5.96 13.03,-16.39 17.98,-23.19 4.95,-6.8 13.02,-18.8 17.93,-26.66 4.91,-7.87 13.1,-22.41 18.2,-32.31 5.1,-9.9 12.03,-24.53 15.39,-32.5 3.37,-7.98 8.82,-22.38 12.1,-32 3.29,-9.63 7.31,-22.45 8.92,-28.5 1.62,-6.05 4.26,-17.53 5.87,-25.5 1.61,-7.98 3.64,-19.23 4.51,-25 0.87,-5.78 2.25,-17.14 3.08,-25.25 0.86,-8.45 1.5,-24.46 1.5,-37.5 -0.01,-12.51 -0.48,-29.05 -1.06,-36.75 -0.58,-7.7 -2.61,-23.23 -4.5,-34.5 -1.9,-11.28 -5.23,-27.7 -7.4,-36.5 -2.18,-8.8 -5.82,-21.85 -8.09,-29 -2.28,-7.15 -7.34,-21.1 -11.25,-31 -3.92,-9.9 -11.45,-26.55 -16.74,-37 -5.29,-10.45 -13.37,-25.3 -17.95,-33 -4.59,-7.7 -15.16,-25.25 -23.51,-39 -8.35,-13.75 -18.82,-31.53 -23.27,-39.5 -4.45,-7.98 -11.1,-21.03 -14.78,-29 -3.68,-7.98 -8.26,-18.55 -10.19,-23.5 -1.93,-4.95 -5.45,-14.63 -7.83,-21.5 -2.38,-6.88 -5.95,-18.57 -7.93,-26 -1.99,-7.43 -4.69,-18.45 -6,-24.5 -1.31,-6.05 -3.3,-16.4 -4.42,-23 -1.13,-6.6 -2.69,-18.3 -3.49,-26 -0.79,-7.7 -1.73,-23.45 -2.09,-35 -0.36,-11.56 -0.18,-28.65 0.38,-38 0.57,-9.35 1.97,-24.2 3.11,-33 1.14,-8.8 3.85,-24.78 6.03,-35.5 2.17,-10.73 8.94,-37.28 15.04,-59 6.1,-21.73 12.38,-44.9 13.95,-51.5 1.57,-6.6 3.99,-17.85 5.37,-25 1.39,-7.15 3.42,-19.75 4.53,-28 1.11,-8.25 2.52,-24.45 3.13,-36 0.62,-11.55 0.84,-27.98 0.49,-36.5 -0.35,-8.53 -1.3,-22.48 -2.11,-31 -0.8,-8.53 -2.59,-22.03 -3.96,-30 -1.38,-7.98 -4.34,-21.93 -6.57,-31 -2.24,-9.07 -6.56,-24.15 -9.61,-33.5 -3.05,-9.35 -8.19,-23.19 -11.41,-30.75 -3.23,-7.56 -9.52,-21.06 -13.99,-30 -4.46,-8.94 -9.94,-19.4 -12.17,-23.25 -2.23,-3.85 -7.43,-12.18 -11.55,-18.5 -4.13,-6.32 -11.12,-16.45 -15.55,-22.5 -4.42,-6.05 -12.32,-16.18 -17.55,-22.5 -5.23,-6.32 -15.15,-17.3 -22.03,-24.39 -6.89,-7.09 -17.49,-17.44 -23.56,-23 -6.06,-5.56 -16.41,-14.42 -23,-19.68 -6.58,-5.26 -16.7,-12.95 -22.47,-17.07 -5.77,-4.13 -17.25,-11.59 -25.5,-16.57 -8.25,-4.99 -21.52,-12.43 -29.5,-16.55 -7.98,-4.12 -19.68,-9.75 -26,-12.53 -6.32,-2.77 -15.55,-6.59 -20.5,-8.5 -4.95,-1.9 -13.95,-5.07 -20,-7.04 -6.05,-1.98 -15.95,-4.95 -22,-6.61 -6.05,-1.65 -16.85,-4.33 -24,-5.96 -7.15,-1.62 -17.28,-3.7 -22.5,-4.62 -5.22,-0.93 -14.45,-2.33 -20.5,-3.12 -7.32,-0.96 -23.38,-1.56 -48,-1.79 -20.35,-0.18 -39.25,-0.15 -42,0.07 z"
       fill="#80d4d5"
       id="Cloud5" />
    <path
       d="m 6061.5,-1138 c -7.15,0.47 -20.65,1.35 -30,1.96 -9.35,0.61 -24.65,1.78 -34,2.61 -9.35,0.82 -25.77,2.64 -36.5,4.03 -10.73,1.39 -25.35,3.41 -32.5,4.5 -7.15,1.08 -18.4,2.88 -25,3.98 -6.6,1.11 -20.32,3.61 -30.5,5.57 -10.18,1.96 -26.15,5.33 -35.5,7.51 -9.35,2.17 -26.68,6.42 -38.5,9.45 -11.82,3.03 -31.4,8.4 -43.5,11.92 -12.1,3.53 -30.1,9.07 -40,12.31 -9.9,3.25 -26.32,8.93 -36.5,12.64 -10.18,3.7 -26.15,9.8 -35.5,13.54 -9.35,3.74 -25.32,10.4 -35.5,14.78 -10.18,4.39 -26.82,11.9 -37,16.69 -10.18,4.78 -27.73,13.45 -39,19.25 -11.27,5.8 -25.9,13.47 -32.5,17.04 -6.6,3.57 -19.43,10.75 -28.5,15.96 -9.07,5.22 -23.48,13.8 -32,19.08 -8.52,5.28 -26.3,16.84 -39.5,25.67 -13.2,8.84 -31.65,21.66 -41,28.49 -9.35,6.83 -22.85,16.93 -30,22.44 -7.15,5.52 -22.45,17.88 -34,27.47 -11.55,9.58 -24.6,20.62 -29,24.51 -4.4,3.9 -16.08,14.52 -25.96,23.59 -9.87,9.08 -26.3,24.84 -36.5,35.01 -10.2,10.17 -26.42,27.05 -36.05,37.5 -9.64,10.45 -20.69,22.6 -24.57,27 -3.87,4.4 -12.43,14.52 -19.01,22.5 -6.58,7.98 -15.35,18.77 -19.49,24 -4.14,5.23 -11.82,15.13 -17.06,22 -5.24,6.88 -13.8,18.35 -19.02,25.5 -5.23,7.15 -16.05,22.67 -24.05,34.5 -8,11.83 -19.6,29.6 -25.78,39.5 -6.18,9.9 -16.51,27.23 -22.97,38.5 -6.46,11.27 -15.8,28.15 -20.77,37.5 -4.96,9.35 -13.52,26 -19.01,37 -5.49,11 -14.28,29.67 -19.54,41.5 -5.25,11.83 -12.79,29.38 -16.76,39 -3.97,9.63 -10.92,27.4 -15.46,39.5 -4.54,12.1 -12.32,34.38 -17.29,49.5 -4.96,15.13 -12.25,39.2 -16.19,53.5 -3.94,14.3 -9.4,35.23 -12.14,46.5 -2.74,11.27 -6.51,27.7 -8.37,36.5 -1.86,8.8002 -4.75,23.4202 -6.42,32.5001 -1.68,9.08 -4.2,23.9201 -5.62,33 -1.42,9.08 -3.67,24.83 -5.01,35.00002 -1.33,10.17005 -3.32,27.71998 -4.42,38.99998 -1.1,11.2801 -2.78,30.4 -3.73,42.5 -1.39,17.62 -1.74,34.6499 -1.77,85.4999 -0.03,43.02 0.38,69.14 1.27,81 0.72,9.63 2.19,27.4 3.28,39.5 1.08,12.1 3.1,31 4.48,42 1.39,11 3.65,27.65 5.05,37 1.39,9.35 4.09,25.55 5.99,36 1.91,10.45 5.06,26.42 7,35.5 1.94,9.08 5.32,23.92 7.49,33 2.18,9.08 7.14,28.2 11.01,42.5 3.88,14.3 9.53,33.88 12.55,43.5 3.02,9.63 7.89,24.47 10.82,33 2.92,8.53 7.45,21.35 10.06,28.5 2.61,7.15 8.44,22.22 12.97,33.5 4.53,11.28 12.15,29.5 16.93,40.5 4.78,11 16.06,34.85 25.07,53 9.01,18.15 22.41,43.8 29.78,57 7.36,13.2 18.04,31.65 23.72,41 5.68,9.35 14.89,23.97 20.46,32.5 5.57,8.53 15.24,22.92 21.47,32 6.24,9.07 18.58,26.18 27.43,38 8.84,11.82 20.79,27.35 26.55,34.5 5.75,7.15 14.77,18.17 20.02,24.48 5.26,6.31 14.9,17.56 21.42,25 6.53,7.44 22.51,24.7 35.5,38.36 13,13.66 34.89,35.32 48.64,48.13 13.75,12.81 29.73,27.43 35.5,32.48 5.77,5.05 18.6,15.84 28.5,23.98 9.9,8.13 22.73,18.49 28.5,23.02 5.77,4.54 14.77,11.45 20,15.35 5.23,3.91 16.02,11.8 24,17.54 7.98,5.73 24.85,17.28 37.5,25.66 12.65,8.38 29.52,19.27 37.5,24.19 7.98,4.92 23.27,13.92 34,20 10.73,6.08 27.82,15.47 38,20.86 10.18,5.39 27.27,14.05 38,19.23 10.73,5.19 25.35,12.12 32.5,15.41 7.15,3.28 19.3,8.69 27,12.01 7.7,3.32 23.45,9.75 35,14.3 11.55,4.54 29.32,11.22 39.5,14.82 10.18,3.61 26.37,9.1 36,12.2 9.62,3.11 26.05,8.11 36.5,11.13 10.45,3.01 22.37,6.39 26.5,7.5 4.12,1.11 13.8,3.58 21.5,5.49 7.7,1.92 23.68,5.65 35.5,8.31 11.82,2.65 26.45,5.77 32.5,6.92 6.05,1.15 15.95,2.98 22,4.06 6.05,1.08 18.65,3.11 28,4.51 9.35,1.4 25.77,3.66 36.5,5.03 10.73,1.37 24.68,2.98 31,3.58 6.32,0.59 19.15,1.73 28.5,2.52 9.35,0.79 39.27,1.97 66.5,2.63 38.39,0.91 57.47,0.91 85,-0.02 19.52,-0.67 40.68,-1.65 47,-2.2 6.32,-0.54 19.15,-1.67 28.5,-2.51 9.35,-0.84 24.2,-2.43 33,-3.53 8.8,-1.11 22.3,-2.92 30,-4.03 7.7,-1.1 22.1,-3.37 32,-5.03 9.9,-1.67 23.62,-4.14 30.5,-5.49 6.87,-1.35 21.27,-4.44 32,-6.86 10.73,-2.43 25.8,-5.98 33.5,-7.89 7.7,-1.92 16.48,-4.15 19.5,-4.96 3.02,-0.81 11.35,-3.12 18.5,-5.14 7.15,-2.02 20.87,-6.09 30.5,-9.06 9.62,-2.97 26.05,-8.3 36.5,-11.85 10.45,-3.55 25.07,-8.7 32.5,-11.44 7.43,-2.73 20.48,-7.75 29,-11.16 8.52,-3.4 20.23,-8.24 26,-10.75 5.77,-2.52 18.15,-8.07 27.5,-12.34 9.35,-4.27 23.98,-11.11 32.5,-15.19 8.52,-4.09 25.18,-12.52 37,-18.74 11.82,-6.22 28.25,-15.14 36.5,-19.82 8.25,-4.68 21.07,-12.11 28.5,-16.52 7.43,-4.41 23.18,-14.28 35,-21.94 11.82,-7.66 28.93,-19.13 38,-25.49 9.07,-6.36 22.35,-15.89 29.5,-21.18 7.15,-5.28 15.89,-11.85 19.43,-14.58 3.54,-2.74 16.37,-13.03 28.5,-22.88 12.14,-9.84 26.53,-21.76 31.99,-26.5 5.45,-4.73 16.93,-15.07 25.5,-22.97 8.57,-7.91 24.54,-23.21 35.49,-34 10.95,-10.8 28.97,-29.31 40.05,-41.13 11.08,-11.82 24.62,-26.71 30.09,-33.08 5.47,-6.37 14.72,-17.39 20.55,-24.5 5.82,-7.11 16.21,-20.12 23.08,-28.92 6.86,-8.8 18.11,-23.65 25,-33 6.88,-9.35 19.47,-27.35 27.97,-40 8.5,-12.65 20.19,-30.65 25.98,-40 5.79,-9.35 13.93,-22.85 18.09,-30 4.15,-7.15 11.27,-19.75 15.8,-28 4.53,-8.25 13.33,-24.9 19.56,-37 6.22,-12.1 14.98,-29.88 19.46,-39.5 4.47,-9.63 11.52,-25.38 15.66,-35 4.14,-9.63 10.68,-25.38 14.53,-35 3.86,-9.63 10.05,-25.83 13.77,-36 3.71,-10.17 10.21,-29.08 14.43,-42 4.23,-12.92 10.39,-33.17 13.71,-45 3.31,-11.83 8.72,-32.3 12.01,-45.5 3.3,-13.2 7.78,-32.33 9.96,-42.5 2.18,-10.17 5.3,-25.92 6.95,-35 1.64,-9.08 4.07,-23.47 5.4,-32 1.34,-8.53 3.57,-24.28 4.97,-35 1.4,-10.72 3.44,-28.72 4.53,-40 1.1,-11.28 2.77,-30.4 3.71,-42.5 1.36,-17.48 1.72,-34.95 1.74,-85 0.02,-41.94 -0.39,-68.6799 -1.24,-79.9999 -0.71,-9.35 -2.18,-27.13 -3.28,-39.5 -1.1,-12.38 -3.11,-31.5 -4.48,-42.49998 -1.36,-11 -3.6,-27.42002 -4.97,-36.50002 -1.37,-9.0799 -4.04,-25.05 -5.93,-35.5 -1.88,-10.4499 -4.77,-25.3 -6.41,-33.0001 -1.64,-7.7 -5.05,-22.77 -7.57,-33.5 -2.53,-10.73 -7.09,-28.73 -10.14,-40 -3.04,-11.27 -7.32,-26.58 -9.51,-34 -2.19,-7.42 -7.16,-23.17 -11.06,-35 -3.9,-11.83 -10.35,-30.27 -14.33,-41 -3.98,-10.73 -10.69,-28.05 -14.92,-38.5 -4.23,-10.45 -12.23,-29.35 -17.79,-42 -5.56,-12.65 -17.16,-36.95 -25.78,-54 -8.62,-17.05 -19.18,-37.3 -23.46,-45 -4.27,-7.7 -12.28,-21.65 -17.79,-31 -5.5,-9.35 -14.97,-24.88 -21.03,-34.5 -6.07,-9.63 -16.22,-25.15 -22.56,-34.5 -6.34,-9.35 -17.25,-24.88 -24.23,-34.5 -6.99,-9.63 -17.06,-23.13 -22.39,-30 -5.33,-6.88 -15.15,-19.25 -21.82,-27.5 -6.68,-8.25 -17.33,-21.06 -23.68,-28.46 -6.35,-7.41 -16.72,-19.1 -23.04,-25.98 -6.32,-6.87 -17.92,-19.27 -25.78,-27.53 -7.85,-8.27 -22.7,-23.07 -33,-32.9 -10.29,-9.83 -26.37,-24.75 -35.72,-33.16 -9.35,-8.4 -27.35,-23.93 -40,-34.49 -12.65,-10.57 -34.25,-27.63 -48,-37.92 -13.75,-10.28 -31.52,-23.22 -39.5,-28.75 -7.98,-5.53 -22.38,-15.2 -32,-21.5 -9.63,-6.3 -23.8,-15.28 -31.5,-19.97 -7.7,-4.68 -20.3,-12.13 -28,-16.54 -7.7,-4.42 -19.85,-11.18 -27,-15.02 -7.15,-3.84 -21.32,-11.27 -31.5,-16.53 -10.18,-5.25 -27.27,-13.69 -38,-18.76 -10.73,-5.06 -28.5,-13.02 -39.5,-17.69 -11,-4.66 -26.75,-11.18 -35,-14.48 -8.25,-3.31 -21.07,-8.27 -28.5,-11.04 -7.43,-2.77 -22.05,-7.93 -32.5,-11.47 -10.45,-3.54 -27.77,-9.09 -38.5,-12.34 -10.73,-3.24 -30.52,-8.84 -44,-12.45 -13.48,-3.6 -35.52,-9.06 -49,-12.13 -13.48,-3.08 -35.07,-7.54 -48,-9.92 -12.93,-2.38 -31.15,-5.48 -40.5,-6.89 -9.35,-1.41 -25.77,-3.67 -36.5,-5.03 -10.73,-1.36 -26.93,-3.17 -36,-4.03 -9.07,-0.85 -26.85,-2.24 -39.5,-3.08 -14.52,-0.97 -43.65,-1.67 -79,-1.91 -30.8,-0.21 -61.85,0 -69,0.47 z"
       fill="#80d4d5"
       fill-opacity="0.35"
       id="Cloud4" />
    <path
       d="m 600.5,-2206 c -7.15,0.47 -20.65,1.35 -30,1.96 -9.35,0.61 -24.65,1.78 -34,2.61 -9.35,0.82 -25.78,2.64 -36.5,4.03 -10.72,1.39 -25.35,3.41 -32.5,4.5 -7.15,1.08 -18.4,2.88 -25,3.98 -6.6,1.11 -20.33,3.61 -30.5,5.57 -10.17,1.96 -26.15,5.33 -35.5,7.51 -9.35,2.17 -26.67,6.42 -38.5,9.45 -11.83,3.03 -31.4,8.4 -43.5,11.92 -12.1,3.53 -30.1,9.07 -40,12.31 -9.9,3.25 -26.33,8.93 -36.5,12.64 -10.17,3.7 -26.15,9.8 -35.5,13.54 -9.35,3.74 -25.33,10.4 -35.5,14.78 -10.17,4.39 -26.83,11.9 -37,16.68 -10.1703,4.79 -27.2704,13.23 -38.0004,18.76 -10.7299,5.53 -25.3499,13.2 -32.5,17.03 -7.15,3.84 -20.4199,11.25 -29.49997,16.47 -9.080013,5.21 -23.47993,13.8 -32.00003,19.08 -8.52,5.28 -26.3,16.84 -39.5,25.67 -13.2,8.84 -31.65,21.66 -40.9996,28.49 -9.35,6.83 -22.85,16.93 -30,22.44 -7.15,5.52 -22.45,17.88 -34,27.47 -11.55,9.58 -24.6,20.62 -29,24.51 -4.4,3.9 -16.08,14.52 -25.96,23.59 -9.87,9.08 -26.3,24.84 -36.5,35.01 -10.2,10.17 -26.42,27.05 -36.05,37.5 -9.64,10.45 -20.69,22.6 -24.57,27 -3.87,4.4 -12.43,14.53 -19.01,22.5 -6.58,7.97 -15.35,18.78 -19.49,24 -4.14,5.22 -11.82,15.13 -17.06,22 -5.24,6.88 -13.8,18.35 -19.02,25.5 -5.23,7.15 -16.05,22.67 -24.05,34.5 -8,11.83 -19.6,29.6 -25.78,39.5 -6.18,9.9 -16.51,27.22 -22.97,38.5 -6.46,11.28 -15.8,28.15 -20.77,37.5 -4.96,9.35 -13.52,26 -19.01,37 -5.49,11 -14.28,29.67 -19.54,41.5 -5.25,11.83 -12.79,29.38 -16.76,39 -3.97,9.63 -10.92,27.4 -15.46,39.5 -4.54,12.1 -12.39,34.6 -17.44,50 -5.06,15.4 -12.51,40.15 -16.57,55 -4.05,14.85 -9.44,35.55 -11.98,46 -2.54,10.45 -6.14,26.2 -8,35 -1.86,8.8 -4.75,23.42 -6.42,32.5 -1.68,9.08 -4.2,23.92 -5.62,33 -1.42,9.08 -3.67,24.83 -5.01,35 -1.33,10.17 -3.32,27.72 -4.42,39 -1.1,11.28 -2.78,30.4 -3.73,42.5 -1.39,17.62 -1.74,34.65 -1.77,85.5 -0.03,43.02 0.38,69.14 1.27,81 0.72,9.63 2.19,27.4 3.28,39.5 1.08,12.1 3.1,31 4.48,42 1.39,11 3.65,27.65 5.05,37 1.39,9.35 4.09,25.55 5.99,36 1.91,10.45 5.06,26.42 7,35.5 1.94,9.08 5.32,23.92 7.49,33 2.18,9.08 7.14,28.2 11.01,42.5 3.88,14.3 9.53,33.88 12.55,43.5 3.02,9.63 7.89,24.47 10.82,33 2.92,8.53 7.45,21.35 10.06,28.5 2.61,7.15 8.44,22.22 12.97,33.5 4.53,11.28 12.15,29.5 16.93,40.5 4.78,11 16.06,34.85 25.07,53 9.01,18.15 22.41,43.8 29.78,57 7.36,13.2 18.04,31.65 23.72,41 5.68,9.35 14.89,23.97 20.46,32.5 5.57,8.53 15.24,22.92 21.47,32 6.24,9.07 18.58,26.18 27.43,38 8.84,11.82 20.79,27.35 26.55,34.5 5.75,7.1499 14.77,18.1699 20.02,24.48 5.26,6.31 14.9,17.56 21.42,25 6.53,7.4399 22.51,24.6999 35.5,38.35984 13,13.65992 34.89,35.32006 48.64,48.13016 13.75,12.81 29.73,27.4299 35.5,32.48 5.77,5.05 18.6,15.84 28.5,23.9799 9.9,8.1301 22.73,18.4901 28.5,23.0201 5.77,4.54 14.77,11.45 20,15.35 5.23,3.91 16.02,11.8 23.9996,17.54 7.98,5.73 24.85,17.28 37.5,25.66 12.6501,8.38 29.5201,19.27 37.5,24.19 7.98,4.92 23.27005,13.92 34,20 10.73,6.08 27.8301,15.47 38,20.86 10.17,5.39 27.2701,14.05 38,19.23 10.7304,5.19 25.3504,12.12 32.5004,15.41 7.15,3.28 19.3,8.69 27,12.01 7.7,3.32 23.45,9.75 35,14.3 11.55,4.54 29.33,11.22 39.5,14.82 10.17,3.61 26.37,9.1 36,12.2 9.62,3.11 26.05,8.11 36.5,11.13 10.45,3.01 22.37,6.39 26.5,7.5 4.12,1.11 13.8,3.58 21.5,5.49 7.7,1.92 23.67,5.65 35.5,8.31 11.83,2.65 26.45,5.77 32.5,6.92 6.05,1.15 15.95,2.98 22,4.06 6.05,1.08 18.65,3.11 28,4.51 9.35,1.4 25.78,3.66 36.5,5.03 10.72,1.37 24.67,2.98 31,3.58 6.33,0.59 19.15,1.73 28.5,2.52 9.35,0.79 39.28,1.97 66.5,2.63 38.39,0.91 57.47,0.91 85,-0.02 19.53,-0.67 40.67,-1.65 47,-2.2 6.33,-0.54 19.15,-1.67 28.5,-2.51 9.35,-0.84 24.2,-2.43 33,-3.53 8.8,-1.11 22.3,-2.92 30,-4.03 7.7,-1.1 22.1,-3.37 32,-5.03 9.9,-1.67 23.62,-4.14 30.5,-5.49 6.87,-1.35 21.28,-4.44 32,-6.86 10.72,-2.43 25.8,-5.98 33.5,-7.89 7.7,-1.92 16.47,-4.15 19.5,-4.96 3.03,-0.81 11.35,-3.12 18.5,-5.14 7.15,-2.02 20.87,-6.1 30.5,-9.07 9.62,-2.97 25.37,-8.06 35,-11.32 9.62,-3.25 24.25,-8.4 32.5,-11.43 8.25,-3.04 21.97,-8.3 30.5,-11.7 8.53,-3.39 20.22,-8.23 26,-10.74 5.78,-2.52 18.15,-8.07 27.5,-12.34 9.35,-4.27 23.97,-11.11 32.5,-15.19 8.53,-4.09 25.17,-12.52 37,-18.74 11.83,-6.22 28.25,-15.14 36.5,-19.82 8.25,-4.68 21.08,-12.11 28.5,-16.52 7.42,-4.41 23.17,-14.28 35,-21.94 11.83,-7.66 28.92,-19.13 38,-25.49 9.07,-6.36 22.35,-15.89 29.5,-21.18 7.15,-5.28 15.89,-11.85 19.43,-14.58 3.54,-2.74 16.37,-13.03 28.5,-22.88 12.14,-9.8402 26.53,-21.7602 31.99,-26.5001 5.45,-4.73 16.93,-15.0701 25.5,-22.97 8.57,-7.9099 24.54,-23.21 35.49,-34 10.95,-10.8001 28.97,-29.30983 40.05,-41.1299 11.08,-11.8201 24.62,-26.71 30.09,-33.0801 5.47,-6.3701 14.72,-17.3899 20.55,-24.5 5.82,-7.1101 16.21,-20.1199 23.08,-28.9199 6.86,-8.8 18.11,-23.65 25,-33 6.88,-9.35 19.47,-27.35 27.97,-40 8.5,-12.65 20.19,-30.65 25.98,-40 5.79,-9.35 13.93,-22.85 18.09,-30 4.15,-7.15 11.27,-19.75 15.8,-28 4.53,-8.25 13.33,-24.9 19.56,-37 6.22,-12.1 14.98,-29.88 19.46,-39.5 4.47,-9.63 11.52,-25.38 15.66,-35 4.14,-9.63 10.68,-25.38 14.53,-35 3.86,-9.63 10.05,-25.83 13.77,-36 3.71,-10.17 10.21,-29.08 14.43,-42 4.23,-12.92 10.39,-33.17 13.71,-45 3.31,-11.83 8.72,-32.3 12.01,-45.5 3.3,-13.2 7.78,-32.33 9.96,-42.5 2.18,-10.17 5.3,-25.92 6.95,-35 1.64,-9.08 4.07,-23.47 5.4,-32 1.34,-8.53 3.57,-24.28 4.97,-35 1.4,-10.72 3.44,-28.72 4.53,-40 1.1,-11.28 2.77,-30.4 3.71,-42.5 1.36,-17.48 1.72,-34.95 1.74,-85 0.02,-41.94 -0.39,-68.68 -1.24,-80 -0.71,-9.35 -2.18,-27.13 -3.28,-39.5 -1.1,-12.38 -3.11,-31.5 -4.48,-42.5 -1.36,-11 -3.6,-27.42 -4.97,-36.5 -1.37,-9.08 -4.04,-25.05 -5.93,-35.5 -1.88,-10.45 -4.77,-25.3 -6.41,-33 -1.64,-7.7 -5.05,-22.78 -7.57,-33.5 -2.53,-10.72 -7.09,-28.72 -10.14,-40 -3.04,-11.28 -7.32,-26.58 -9.51,-34 -2.19,-7.42 -7.16,-23.17 -11.06,-35 -3.9,-11.83 -10.35,-30.28 -14.33,-41 -3.98,-10.72 -10.69,-28.05 -14.92,-38.5 -4.23,-10.45 -12.23,-29.35 -17.79,-42 -5.56,-12.65 -17.16,-36.95 -25.78,-54 -8.62,-17.05 -19.18,-37.3 -23.46,-45 -4.27,-7.7 -12.28,-21.65 -17.79,-31 -5.5,-9.35 -14.97,-24.88 -21.03,-34.5 -6.07,-9.63 -16.22,-25.15 -22.56,-34.5 -6.34,-9.35 -17.25,-24.88 -24.23,-34.5 -6.99,-9.63 -17.06,-23.13 -22.39,-30 -5.33,-6.88 -15.15,-19.25 -21.82,-27.5 -6.68,-8.25 -17.33,-21.06 -23.68,-28.46 -6.35,-7.41 -16.72,-19.1 -23.04,-25.98 -6.32,-6.87 -17.92,-19.27 -25.78,-27.53 -7.85,-8.27 -22.7,-23.07 -33,-32.9 -10.29,-9.83 -26.37,-24.75 -35.72,-33.16 -9.35,-8.4 -27.35,-23.93 -40,-34.49 -12.65,-10.57 -34.25,-27.63 -48,-37.92 -13.75,-10.28 -31.53,-23.22 -39.5,-28.75 -7.97,-5.53 -22.37,-15.2 -32,-21.5 -9.62,-6.3 -23.8,-15.28 -31.5,-19.97 -7.7,-4.68 -20.3,-12.13 -28,-16.54 -7.7,-4.42 -19.85,-11.18 -27,-15.02 -7.15,-3.84 -21.33,-11.27 -31.5,-16.53 -10.17,-5.25 -27.28,-13.69 -38,-18.76 -10.72,-5.06 -28.5,-13.02 -39.5,-17.69 -11,-4.66 -26.75,-11.18 -35,-14.48 -8.25,-3.31 -21.08,-8.27 -28.5,-11.04 -7.42,-2.77 -22.05,-7.93 -32.5,-11.47 -10.45,-3.54 -27.78,-9.09 -38.5,-12.34 -10.72,-3.24 -30.53,-8.84 -44,-12.45 -13.47,-3.6 -35.53,-9.06 -49,-12.13 -13.47,-3.08 -35.08,-7.54 -48,-9.92 -12.92,-2.38 -31.15,-5.48 -40.5,-6.89 -9.35,-1.41 -25.78,-3.67 -36.5,-5.03 -10.72,-1.36 -26.92,-3.17 -36,-4.03 -9.08,-0.85 -26.85,-2.24 -39.5,-3.08 -14.52,-0.97 -43.65,-1.67 -79,-1.91 -30.8,-0.21 -61.85,0 -69,0.47 z"
       fill="#80d4d5"
       fill-opacity="0.25"
       id="Cloud2" />
    <path
       d="m 5730,1251.99 c -6.32,0.99 -16.9,3.02 -23.5,4.51 -6.6,1.48 -18.52,4.49 -26.5,6.69 -7.98,2.2 -19.9,5.5 -26.5,7.34 -6.6,1.83 -24.15,6.77 -39,10.97 -14.85,4.19 -36.68,10.33 -48.5,13.64 -11.82,3.31 -57.05,16.12 -100.5,28.47 -43.45,12.35 -113.88,32.38 -156.5,44.51 -42.63,12.12 -95.73,27.21 -118,33.52 -22.27,6.32 -52.2,14.81 -66.5,18.87 -14.3,4.06 -71.9,20.48 -128,36.48 -56.1,16 -109.2,31.34 -118,34.08 -8.8,2.75 -20.27,6.52 -25.5,8.39 -5.23,1.86 -14.23,5.46 -20,8.01 -5.77,2.54 -13.88,6.47 -18,8.73 -4.13,2.25 -13.13,7.82 -20,12.36 -6.88,4.55 -16.32,11.33 -21,15.07 -4.68,3.74 -14.59,12.89 -22.04,20.33 -7.44,7.45 -16.58,17.37 -20.3,22.04 -3.72,4.67 -9.84,13 -13.59,18.5 -3.75,5.5 -9.31,14.5 -12.36,20 -3.05,5.5 -7.77,15.17 -10.49,21.5 -2.71,6.33 -7,17.8 -9.51,25.5 -2.52,7.7 -6.61,21.2 -9.1,30 -2.48,8.8 -16.01,61.67 -30.07,117.5 -14.05,55.83 -33.41,133.22 -43.02,172 -9.6,38.78 -19.02,78.6 -20.93,88.5 -1.91,9.9 -3.95,22.72 -4.54,28.5 -0.58,5.78 -1.05,18.82 -1.04,29 0.02,10.18 0.66,23.22 1.43,29 0.77,5.78 2.61,16.35 4.08,23.5 1.48,7.15 4.03,17.5 5.67,23 1.64,5.5 5.01,15.18 7.5,21.5 2.48,6.32 6.98,16.45 10,22.5 3.02,6.05 7.78,14.82 10.58,19.5 2.8,4.68 8.07,12.55 11.72,17.5 3.64,4.95 10.72,13.72 15.73,19.5 5.01,5.78 24.56,25.86 43.45,44.64 18.88,18.78 78.65,77.01 132.83,129.41 54.18,52.4 105.41,101.61 113.85,109.36 8.44,7.75 20.59,18.3 27,23.45 6.41,5.15 15.25,11.72 19.65,14.61 4.4,2.89 12.73,7.75 18.5,10.81 5.77,3.06 15.45,7.67 21.5,10.26 6.05,2.58 17.52,6.85 25.5,9.49 7.98,2.65 21.7,6.22 30.5,7.95 9.9,1.95 22.1,3.55 32,4.19 8.8,0.57 24.1,0.81 34,0.52 13.49,-0.38 21.51,-1.17 32,-3.14 7.7,-1.45 20.07,-4.15 27.5,-5.99 7.43,-1.85 24.07,-6.35 37,-10.01 12.93,-3.66 32.95,-9.31 44.5,-12.55 11.55,-3.24 31.35,-8.81 44,-12.37 12.65,-3.57 54.27,-15.33 92.5,-26.15 38.23,-10.82 100.77,-28.6 139,-39.51 38.23,-10.91 94.7,-27.04 125.5,-35.85 30.8,-8.8 85.25,-24.32 121,-34.47 35.75,-10.15 68.15,-19.35 72,-20.45 3.85,-1.09 35.35,-10.11 70,-20.04 34.65,-9.93 72.23,-21.06 83.5,-24.74 11.27,-3.68 25.68,-9 32,-11.83 6.32,-2.83 16.23,-7.77 22,-10.98 5.77,-3.21 15.23,-9.14 21,-13.19 5.77,-4.04 14.1,-10.24 18.5,-13.77 4.4,-3.53 14.3,-12.88 22,-20.79 7.7,-7.9 17.86,-19.54 22.57,-25.86 4.72,-6.33 11.2,-15.78 14.41,-21 3.2,-5.22 8.63,-15.13 12.06,-22 3.43,-6.88 8.31,-18.24 10.85,-25.25 2.53,-7.01 6.61,-19.61 9.06,-28 2.45,-8.39 9.17,-33.7 14.93,-56.25 5.76,-22.55 24.89,-98.38 42.51,-168.5 17.61,-70.13 33.82,-135.6 36.01,-145.5 2.19,-9.9 4.91,-23.4 6.03,-30 1.12,-6.6 2.5,-16.05 3.05,-21 0.55,-4.95 1,-15.97 1,-24.5 0,-8.53 -0.66,-21.35 -1.46,-28.5 -0.8,-7.15 -2.17,-16.83 -3.04,-21.5 -0.87,-4.67 -2.94,-13.67 -4.61,-20 -1.67,-6.33 -4.99,-16.9 -7.39,-23.5 -2.39,-6.6 -6.55,-16.72 -9.24,-22.5 -2.68,-5.78 -7.6,-15.22 -10.91,-21 -3.32,-5.78 -8.36,-13.88 -11.21,-18 -2.85,-4.13 -9.1,-12.22 -13.9,-17.99 -4.8,-5.77 -18.17,-20.12 -29.72,-31.89 -11.55,-11.77 -34.5,-34.48 -51,-50.46 -16.5,-15.99 -43.5,-42.14 -60.01,-58.11 -16.5,-15.98 -51.54,-49.97 -77.86,-75.55 -26.33,-25.58 -57.38,-55.42 -69,-66.33 -11.62,-10.9 -26.88,-24.4 -33.92,-30 -7.03,-5.59 -17.38,-13.02 -23,-16.49 -5.61,-3.48 -16.28,-9.39 -23.71,-13.12 -7.43,-3.74 -19.01,-8.88 -25.75,-11.43 -6.74,-2.54 -18.21,-6.18 -25.5,-8.08 -7.29,-1.9 -18.2,-4.38 -24.25,-5.5 -6.05,-1.13 -16.18,-2.5 -22.5,-3.04 -6.32,-0.55 -20.05,-0.95 -30.5,-0.91 -13.02,0.06 -22.62,0.65 -30.5,1.89 z"
       fill="#0e383a"
       id="Cloud1" />
    <g
       id="Star11">
      <path
         d="m 1687.72,1410.88 c 2.83,37.03 2.08,151.63 -109.61,190.17 -1.43,0.49 -0.97,2.59 0.54,2.43 117.56,-11.76 166.26,92 179.19,126.8 0.52,1.39 2.59,0.93 2.47,-0.55 -2.83,-37.03 -2.08,-151.62 109.61,-190.16 1.43,-0.5 0.97,-2.59 -0.53,-2.44 -117.57,11.77 -166.27,-92 -179.2,-126.79 -0.51,-1.39 -2.58,-0.94 -2.47,0.54 z"
         fill="#ffffff"
         id="path16" />
    </g>
    <g
       id="Star10">
      <path
         d="m 3966.64,286.862 c -12.92,34.814 -61.56,138.58 -179.13,126.843 -1.5,-0.152 -1.96,1.946 -0.53,2.437 111.7,38.511 112.51,153.132 109.69,190.146 -0.12,1.478 1.95,1.932 2.47,0.541 12.92,-34.815 61.56,-138.581 179.13,-126.845 1.5,0.152 1.96,-1.946 0.53,-2.437 -111.69,-38.511 -112.5,-153.131 -109.68,-190.143 0.11,-1.479 -1.96,-1.932 -2.48,-0.542 z"
         fill="#ffffff"
         id="path17" />
    </g>
    <g
       id="Star9">
      <path
         d="m 3820.69,787.222 c -3.53,24.042 -20.54,97.08 -97.39,105.569 -0.98,0.108 -0.99,1.513 -0.01,1.633 76.74,9.446 92.86,82.701 96.09,106.776 0.13,0.96 1.51,0.97 1.65,0.01 3.54,-24.043 20.55,-97.081 97.4,-105.57 0.98,-0.108 0.99,-1.513 0.01,-1.633 -76.74,-9.446 -92.86,-82.701 -96.09,-106.775 -0.13,-0.962 -1.52,-0.97 -1.66,-0.01 z"
         fill="#80d4d5"
         id="path18" />
    </g>
    <g
       id="Star8">
      <path
         d="m 3505.51,309.324 c -3.53,23.969 -20.49,96.782 -97.1,105.245 -0.98,0.108 -0.99,1.509 -0.01,1.628 76.5,9.418 92.57,82.448 95.8,106.449 0.12,0.959 1.51,0.967 1.65,0.01 3.52,-23.969 20.48,-96.783 97.09,-105.247 0.98,-0.107 0.99,-1.508 0.01,-1.627 -76.5,-9.418 -92.57,-82.447 -95.79,-106.448 -0.13,-0.959 -1.51,-0.967 -1.65,-0.01 z"
         fill="#80d4d5"
         id="path19" />
    </g>
    <g
       id="Star6">
      <path
         d="m 1561.39,975.128 c 0.37,18.09 -3.14,73.822 -58.53,89.512 -0.7,0.2 -0.54,1.23 0.2,1.2 57.51,-2.51 78.36,49.3 83.7,66.58 0.21,0.69 1.23,0.53 1.21,-0.19 -0.36,-18.1 3.14,-73.82 58.53,-89.51 0.71,-0.2 0.54,-1.24 -0.19,-1.2 -57.51,2.5 -78.36,-49.307 -83.7,-66.588 -0.21,-0.69 -1.23,-0.526 -1.22,0.196 z"
         fill="#80d4d5"
         id="path20" />
    </g>
    <g
       id="Star5">
      <path
         d="m 961.312,916.805 c 12.986,19.664 47.898,83.455 -2.168,139.265 -0.642,0.71 0.26,1.73 1.047,1.18 61.579,-42.76 120.579,-0.23 138.479,15.09 0.71,0.61 1.72,-0.28 1.2,-1.07 -12.99,-19.66 -47.9,-83.454 2.17,-139.261 0.64,-0.713 -0.26,-1.735 -1.05,-1.186 -61.58,42.769 -120.577,0.232 -138.474,-15.081 -0.715,-0.612 -1.723,0.278 -1.204,1.063 z"
         fill="#80d4d5"
         id="path21" />
    </g>
    <g
       id="Star4">
      <path
         d="m 1443.04,473.939 c 3.68,18.106 10.38,74.729 -42.38,100.649 -0.67,0.331 -0.32,1.338 0.42,1.17 57.31,-13.065 87.76,35.156 96.29,51.537 0.34,0.654 1.33,0.303 1.19,-0.42 -3.69,-18.106 -10.39,-74.73 42.37,-100.65 0.68,-0.331 0.32,-1.338 -0.41,-1.17 -57.32,13.065 -87.76,-35.156 -96.29,-51.536 -0.35,-0.654 -1.34,-0.303 -1.19,0.42 z"
         fill="#80d4d5"
         id="path22" />
    </g>
    <g
       id="Star3">
      <path
         d="m 2934.41,475.855 c -3.22,22.917 -18.96,92.575 -92,101.116 -0.93,0.108 -0.93,1.446 0,1.554 73.04,8.542 88.8,78.209 92.02,101.116 0.13,0.915 1.44,0.915 1.57,0 3.22,-22.917 18.96,-92.574 92,-101.116 0.93,-0.108 0.93,-1.446 0,-1.554 -73.04,-8.541 -88.8,-78.209 -92.02,-101.116 -0.13,-0.915 -1.44,-0.915 -1.57,0 z"
         fill="#80d4d5"
         id="path25"
         inkscape:label="LogoStar3" />
    </g>
    <g
       id="Star2">
      <path
         d="m 3102.09,645.674 c -2.4,14.179 -11.89,47.871 -48.21,53.549 -0.91,0.138 -0.91,1.407 0,1.545 36.32,5.677 45.82,39.379 48.22,53.549 0.15,0.876 1.42,0.876 1.57,0 2.4,-14.179 11.89,-47.872 48.21,-53.549 0.91,-0.138 0.91,-1.407 0,-1.545 -36.32,-5.678 -45.82,-39.38 -48.22,-53.549 -0.15,-0.876 -1.42,-0.876 -1.57,0 z"
         fill="#80d4d5"
         id="path26"
         inkscape:label="LogoStar2" />
    </g>
    <g
       id="Star1">
      <path
         d="m 3094.69,1192.59 c -2.07,11.1 -9.47,34.67 -35.22,39.31 -0.88,0.16 -0.88,1.38 0,1.54 25.75,4.64 33.16,28.2 35.23,39.31 0.16,0.86 1.4,0.86 1.57,0 2.07,-11.1 9.47,-34.67 35.22,-39.31 0.88,-0.16 0.88,-1.38 0,-1.54 -25.75,-4.64 -33.16,-28.2 -35.23,-39.31 -0.16,-0.87 -1.4,-0.87 -1.57,0 z"
         fill="#ffffff"
         id="path27"
         inkscape:label="LogoStar1" />
    </g>
  </g>
  <g
     id="Logo"
     style="display:inline"
     inkscape:label="Logo">
    <path
       d="m 2323.18,947.801 c -85.35,17.614 -179.92,46.405 -246.82,68.419 -5.41,1.78 -9.64,-4.79 -5.8,-8.99 59.11,-64.388 106.33,-146.287 106.33,-146.287 95.24,-161.415 252.65,-258.634 438.38,-232.509 71.13,10.007 135.64,37.185 189.85,76.762 10.87,7.941 12.55,23.517 3.46,33.456 -4.37,4.792 -10.46,7.331 -16.62,7.331 -3.75,0 -7.53,-0.945 -10.98,-2.913 -35.35,-20.251 -75.06,-29.579 -117.82,-35.601 -144.07,-20.261 -279.51,52.26 -341.7,174.188 -10.34,20.27 -6.71,41.859 4.95,57.357 2.46,3.267 0.77,7.97 -3.23,8.797 z"
       fill="#80d4d5"
       id="LogoTop"
       inkscape:label="LogoTop" />
    <path
       d="m 2988.33,1045.06 c -7.15,1.26 -13.88,-4.02 -14.1,-11.3 -0.62,-21.56 1.68,-42.811 -2.18,-63.602 -3.03,-16.335 -18.23,-27.543 -34.75,-25.742 l -0.56,0.069 c -71.83,7.931 -270.95,34.027 -528.03,102.465 -75.84,20.18 -108.11,109.96 -62.33,173.69 50.84,70.81 130.23,120.19 224.52,133.45 129.98,18.29 252.9,-36.97 321.36,-139.17 5.95,-8.89 16.98,-12.85 27.13,-9.5 10.06,3.32 16.21,12.64 16.21,22.46 0,3.6 -0.83,7.26 -2.59,10.72 -79.55,156.33 -252.05,252.44 -435.47,226.63 -86.27,-12.13 -162.81,-49.56 -223.11,-103.71 -0.05,-0.04 -0.11,-0.08 -0.17,-0.12 -80.06,-56.54 -161.72,-109.94 -299.66,-131.74 -207.09,-32.74 -104.89,-96.25 5.09,-151.56 80.98,-34.48 276.94,-86.934 398.62,-118.078 1.72,-0.285 3.46,-0.659 5.21,-1.112 16.68,-4.369 35.21,-9.141 55.27,-14.179 11.64,-2.903 21.26,-5.284 28.4,-7.045 1,-0.246 1.94,-0.483 2.84,-0.699 3.41,-0.837 6.11,-1.496 8.03,-1.958 0.3,-0.079 0.62,-0.158 0.93,-0.236 0.3,-0.069 0.57,-0.138 0.81,-0.197 0.22,-0.049 0.43,-0.099 0.65,-0.158 0.16,-0.039 0.32,-0.078 0.49,-0.118 0.11,-0.029 0.22,-0.049 0.34,-0.078 0.12,-0.03 0.18,-0.05 0.18,-0.05 116.87,-28.388 270.91,-61.834 415.13,-80.796 11.19,-1.466 22.32,-2.814 33.35,-4.093 82.44,-9.594 160.36,-13.835 224.67,-8.935 279.71,21.402 -51.77,184.492 -166.28,204.692 z"
       fill="#ffffff"
       id="path24"
       inkscape:label="LogoBottom" />
  </g>
  <defs
     id="defs37">
    <clipPath
       id="clip0_2_191">
      <rect
         width="5120"
         height="2160"
         fill="white"
         id="rect28" />
    </clipPath>
    <clipPath
       id="clip2_2_191">
      <rect
         width="302"
         height="330"
         fill="white"
         transform="translate(1542 1441.73) rotate(-12.3769)"
         id="rect30" />
    </clipPath>
    <clipPath
       id="clip3_2_191">
      <rect
         width="302"
         height="330"
         fill="white"
         transform="translate(3821.39 253.898) rotate(12.362)"
         id="rect31" />
    </clipPath>
    <clipPath
       id="clip4_2_191">
      <rect
         width="197.623"
         height="215.945"
         fill="white"
         transform="translate(3723.23 785.894) rotate(0.357023)"
         id="rect32" />
    </clipPath>
    <clipPath
       id="clip5_2_191">
      <rect
         width="197.016"
         height="215.283"
         fill="white"
         transform="translate(3408.34 308) rotate(0.357023)"
         id="rect33" />
    </clipPath>
    <clipPath
       id="clip6_2_191">
      <rect
         width="147.144"
         height="160.787"
         fill="white"
         transform="translate(1489.66 986.146) rotate(-9.15554)"
         id="rect34" />
    </clipPath>
    <clipPath
       id="clip7_2_191">
      <rect
         width="191.635"
         height="209.402"
         fill="white"
         transform="translate(890 978.839) rotate(-41.4434)"
         id="rect35" />
    </clipPath>
    <clipPath
       id="clip8_2_191">
      <rect
         width="150.257"
         height="164.188"
         fill="white"
         transform="translate(1373 498.164) rotate(-19.503)"
         id="rect36" />
    </clipPath>
    <clipPath
       clipPathUnits="userSpaceOnUse"
       id="clipPath37">
      <rect
         width="5120"
         height="2160"
         fill="#ffffff"
         id="rect37"
         x="0"
         y="0" />
    </clipPath>
    <clipPath
       clipPathUnits="userSpaceOnUse"
       id="clipPath38">
      <rect
         width="5120"
         height="2160"
         fill="#ffffff"
         id="rect38"
         x="0"
         y="0" />
    </clipPath>
    <clipPath
       clipPathUnits="userSpaceOnUse"
       id="clipPath39">
      <rect
         width="5120"
         height="2160"
         fill="#ffffff"
         id="rect39"
         x="0"
         y="0" />
    </clipPath>
    <clipPath
       clipPathUnits="userSpaceOnUse"
       id="clipPath40">
      <rect
         width="5120"
         height="2160"
         fill="#ffffff"
         id="rect40"
         x="0"
         y="0" />
    </clipPath>
    <clipPath
       clipPathUnits="userSpaceOnUse"
       id="clipPath41">
      <rect
         width="5120"
         height="2160"
         fill="#ffffff"
         id="rect41"
         x="0"
         y="0" />
    </clipPath>
    <clipPath
       clipPathUnits="userSpaceOnUse"
       id="clipPath42">
      <rect
         width="5120"
         height="2160"
         fill="#ffffff"
         id="rect42"
         x="0"
         y="0" />
    </clipPath>
    <clipPath
       clipPathUnits="userSpaceOnUse"
       id="clipPath43">
      <rect
         width="5120"
         height="2160"
         fill="#ffffff"
         id="rect43"
         x="0"
         y="0" />
    </clipPath>
    <clipPath
       clipPathUnits="userSpaceOnUse"
       id="clipPath44">
      <rect
         width="5120"
         height="2160"
         fill="#ffffff"
         id="rect44"
         x="0"
         y="0" />
    </clipPath>
    <clipPath
       clipPathUnits="userSpaceOnUse"
       id="clipPath45">
      <rect
         width="5120"
         height="2160"
         fill="#ffffff"
         id="rect45"
         x="0"
         y="0" />
    </clipPath>
    <clipPath
       clipPathUnits="userSpaceOnUse"
       id="clipPath46">
      <rect
         width="5120"
         height="2160"
         fill="#ffffff"
         id="rect46"
         x="0"
         y="0" />
    </clipPath>
  </defs>
</svg>
